<svg id="svg" version="1.1" xmlns="http://www.w3.org/2000/svg" xmlns:xlink="http://www.w3.org/1999/xlink" width="400" height="400" viewBox="0, 0, 400,400"><g id="svgg"><path id="path0" d="M109.159 143.730 C 109.113 143.776,108.457 143.891,107.701 143.986 C 106.944 144.081,105.184 144.431,103.788 144.765 C 102.392 145.098,100.875 145.429,100.417 145.500 C 99.958 145.570,98.421 145.942,97.000 146.326 C 95.579 146.709,94.042 147.123,93.583 147.244 C 92.818 147.447,90.915 148.019,88.167 148.870 C 87.571 149.055,86.774 149.345,86.396 149.514 C 86.018 149.684,85.381 149.897,84.979 149.988 C 84.578 150.078,83.543 150.456,82.678 150.826 C 81.814 151.197,81.008 151.500,80.888 151.500 C 80.767 151.500,79.951 151.837,79.074 152.250 C 78.197 152.662,77.409 153.000,77.323 153.000 C 76.756 153.000,68.234 157.392,66.308 158.677 C 65.328 159.331,63.645 160.387,62.942 160.789 C 62.583 160.994,62.206 161.269,62.104 161.400 C 62.001 161.531,61.690 161.775,61.414 161.944 C 60.419 162.549,57.700 164.672,57.606 164.917 C 57.554 165.054,57.414 165.167,57.297 165.167 C 56.833 165.167,51.120 170.840,49.965 172.447 C 49.755 172.739,49.321 173.322,49.000 173.744 C 47.369 175.887,47.000 176.405,47.000 176.555 C 47.000 176.645,46.817 176.958,46.593 177.252 C 46.158 177.822,45.082 179.719,44.420 181.083 C 43.660 182.647,42.500 185.360,42.500 185.572 C 42.500 185.688,42.203 186.687,41.840 187.792 C 39.667 194.411,39.770 204.821,42.081 212.065 C 42.311 212.788,42.500 213.481,42.500 213.605 C 42.500 213.729,42.770 214.525,43.100 215.373 C 43.431 216.222,43.833 217.292,43.995 217.750 C 44.569 219.372,47.309 224.956,48.117 226.148 C 48.328 226.459,48.500 226.786,48.500 226.875 C 48.500 226.964,48.837 227.520,49.250 228.110 C 49.662 228.700,50.000 229.246,50.000 229.323 C 50.000 229.400,50.319 229.903,50.709 230.440 C 51.350 231.324,51.959 232.207,53.167 234.000 C 53.396 234.341,53.720 234.753,53.886 234.916 C 54.053 235.080,54.314 235.409,54.467 235.648 C 54.760 236.109,58.145 240.273,58.840 241.029 C 59.066 241.273,59.625 241.893,60.083 242.406 C 62.565 245.183,70.448 252.864,70.926 252.971 C 71.058 253.000,71.167 253.092,71.167 253.175 C 71.167 253.258,72.348 254.296,73.792 255.481 C 75.235 256.666,76.762 257.942,77.183 258.317 C 77.605 258.693,78.024 259.000,78.116 259.000 C 78.207 259.000,78.418 259.150,78.584 259.334 C 78.751 259.518,79.634 260.212,80.547 260.876 C 81.460 261.540,82.642 262.421,83.174 262.833 C 83.706 263.246,84.353 263.712,84.612 263.869 C 84.871 264.027,85.758 264.644,86.583 265.241 C 87.408 265.838,88.308 266.451,88.583 266.604 C 88.858 266.757,89.340 267.092,89.654 267.350 C 89.967 267.607,90.281 267.783,90.350 267.740 C 90.420 267.696,91.813 268.512,93.447 269.551 C 97.790 272.314,99.947 273.597,105.833 276.915 C 124.949 287.692,151.406 297.948,176.083 304.149 C 192.347 308.236,210.878 311.496,224.500 312.667 C 237.569 313.790,240.189 313.910,251.667 313.910 C 262.731 313.910,264.432 313.840,274.000 312.998 C 284.581 312.067,284.268 312.103,289.083 311.243 C 290.825 310.932,292.925 310.558,293.750 310.412 C 294.575 310.267,296.150 309.930,297.250 309.665 C 298.350 309.400,299.671 309.108,300.186 309.018 C 300.701 308.927,302.186 308.549,303.486 308.176 C 304.786 307.804,305.952 307.500,306.077 307.500 C 306.324 307.500,310.324 306.263,312.333 305.565 C 313.021 305.326,314.071 304.978,314.667 304.792 C 315.820 304.431,316.993 303.986,318.089 303.493 C 318.459 303.327,318.984 303.136,319.256 303.070 C 319.528 303.003,320.451 302.623,321.307 302.224 C 322.163 301.826,322.934 301.500,323.019 301.500 C 323.104 301.500,323.791 301.183,324.545 300.796 C 325.300 300.409,326.142 300.015,326.417 299.921 C 326.692 299.827,327.292 299.543,327.750 299.290 C 329.002 298.599,329.027 298.586,329.833 298.172 C 331.113 297.514,333.055 296.415,333.688 295.989 C 334.745 295.279,336.368 294.258,336.816 294.021 C 337.055 293.894,337.438 293.627,337.667 293.425 C 337.896 293.224,338.702 292.622,339.458 292.086 C 340.215 291.551,340.833 291.050,340.833 290.973 C 340.833 290.896,340.933 290.833,341.056 290.833 C 341.178 290.833,341.621 290.496,342.039 290.083 C 342.458 289.671,342.869 289.333,342.953 289.333 C 343.329 289.333,349.229 283.242,350.632 281.405 C 352.542 278.906,353.000 278.269,353.000 278.112 C 353.000 278.022,353.186 277.705,353.413 277.407 C 353.824 276.868,355.059 274.680,355.664 273.417 C 356.396 271.890,357.500 269.291,357.500 269.095 C 357.500 268.979,357.797 267.980,358.160 266.875 C 360.165 260.769,360.234 250.439,358.315 243.957 C 358.037 243.018,357.670 241.725,357.501 241.083 C 357.331 240.442,356.956 239.354,356.666 238.667 C 356.376 237.979,356.082 237.189,356.012 236.911 C 355.776 235.974,352.724 229.758,351.915 228.564 C 351.687 228.228,351.500 227.885,351.500 227.801 C 351.500 227.717,351.182 227.184,350.793 226.616 C 350.404 226.048,349.953 225.321,349.791 225.000 C 349.629 224.679,349.009 223.742,348.414 222.917 C 347.818 222.092,347.133 221.117,346.892 220.750 C 346.650 220.383,346.219 219.808,345.934 219.472 C 345.650 219.135,345.117 218.467,344.750 217.987 C 344.067 217.092,341.680 214.200,341.083 213.544 C 340.900 213.342,340.375 212.758,339.917 212.246 C 336.472 208.399,329.094 201.395,325.435 198.500 C 325.261 198.362,324.755 197.950,324.311 197.583 C 320.642 194.558,318.167 192.713,318.167 193.004 C 318.167 193.109,318.312 193.769,318.491 194.472 C 321.210 205.196,322.176 220.640,320.910 233.142 C 320.630 235.901,320.654 236.004,321.918 237.448 C 322.330 237.919,322.667 238.368,322.667 238.447 C 322.667 238.526,322.880 238.852,323.141 239.170 C 323.874 240.065,325.496 242.612,326.217 244.000 C 326.575 244.688,326.972 245.368,327.100 245.513 C 327.228 245.658,327.333 245.887,327.333 246.023 C 327.333 246.159,327.609 246.828,327.947 247.510 C 328.531 248.690,329.045 250.277,329.616 252.667 C 329.995 254.252,329.955 256.833,329.531 258.083 C 328.820 260.181,328.615 260.622,327.733 261.934 C 326.078 264.397,322.389 267.763,319.354 269.578 C 319.205 269.667,318.785 269.930,318.421 270.162 C 316.526 271.368,311.386 273.985,310.000 274.449 C 309.587 274.587,309.100 274.837,308.917 275.004 C 307.941 275.891,299.604 278.572,292.917 280.149 C 286.477 281.668,281.526 282.475,272.417 283.492 C 258.260 285.072,236.865 284.631,219.583 282.404 C 216.363 281.989,209.696 281.017,208.250 280.752 C 207.517 280.618,205.454 280.247,203.667 279.929 C 177.454 275.263,150.747 266.538,128.250 255.294 C 123.510 252.925,120.644 251.369,114.667 247.923 C 106.449 243.185,96.167 235.737,89.417 229.633 C 86.411 226.915,81.390 221.799,81.107 221.167 C 80.933 220.777,78.626 217.795,77.733 216.807 C 77.513 216.563,77.333 216.284,77.333 216.187 C 77.333 216.091,77.121 215.765,76.861 215.464 C 76.200 214.697,74.167 211.567,74.167 211.317 C 74.167 211.203,74.065 210.991,73.942 210.846 C 73.441 210.261,71.412 205.990,71.188 205.051 C 71.105 204.702,70.835 203.667,70.587 202.750 C 70.000 200.577,69.952 198.100,70.468 196.583 C 71.175 194.504,71.377 194.069,72.242 192.761 C 73.943 190.191,77.478 186.994,80.893 184.935 C 81.181 184.761,81.679 184.446,82.000 184.234 C 82.879 183.654,84.573 182.737,86.251 181.934 C 88.100 181.049,87.926 181.275,89.138 178.167 C 93.865 166.042,100.929 153.934,108.467 145.034 C 108.956 144.456,109.330 143.908,109.299 143.815 C 109.268 143.722,109.205 143.684,109.159 143.730 " stroke="none" fill="#ebebeb" fill-rule="evenodd"></path><path id="path1" d="M193.000 101.341 C 188.875 101.602,186.612 101.849,183.167 102.412 C 181.287 102.719,179.412 103.016,179.000 103.071 C 178.588 103.126,176.938 103.471,175.333 103.837 C 173.729 104.204,172.042 104.588,171.583 104.691 C 171.125 104.794,169.962 105.130,169.000 105.438 C 168.037 105.745,167.125 105.998,166.971 105.998 C 166.818 105.999,166.031 106.234,165.221 106.519 C 164.412 106.804,163.150 107.219,162.417 107.440 C 161.683 107.660,160.858 107.943,160.583 108.069 C 160.308 108.194,159.896 108.351,159.667 108.419 C 159.438 108.486,159.175 108.597,159.083 108.665 C 158.992 108.733,158.413 108.949,157.797 109.145 C 157.181 109.341,156.125 109.763,155.449 110.084 C 154.774 110.404,154.136 110.667,154.032 110.667 C 153.842 110.667,151.985 111.511,149.000 112.955 C 146.297 114.262,145.759 114.541,145.489 114.772 C 145.346 114.895,144.971 115.085,144.656 115.194 C 144.341 115.304,143.705 115.635,143.241 115.930 C 142.778 116.226,142.106 116.590,141.747 116.740 C 141.389 116.890,141.055 117.074,141.006 117.149 C 140.957 117.224,140.279 117.644,139.500 118.083 C 138.721 118.522,137.871 119.058,137.612 119.274 C 137.353 119.490,137.075 119.667,136.995 119.667 C 136.915 119.667,136.367 120.004,135.776 120.417 C 135.186 120.829,134.647 121.167,134.577 121.167 C 134.508 121.167,134.143 121.415,133.767 121.719 C 133.391 122.022,132.558 122.628,131.917 123.064 C 130.207 124.227,129.111 125.034,128.665 125.458 C 128.448 125.665,128.199 125.833,128.112 125.833 C 128.025 125.833,127.638 126.115,127.251 126.458 C 126.864 126.802,126.077 127.458,125.501 127.917 C 123.408 129.582,121.167 131.527,121.167 131.678 C 121.167 131.764,121.073 131.833,120.958 131.833 C 120.844 131.833,120.375 132.206,119.917 132.662 C 119.458 133.118,117.865 134.680,116.375 136.134 C 114.885 137.588,113.667 138.868,113.667 138.977 C 113.667 139.087,113.556 139.220,113.421 139.271 C 113.209 139.353,112.463 140.159,110.110 142.853 C 109.820 143.185,109.583 143.534,109.583 143.628 C 109.583 143.723,108.756 144.839,107.744 146.108 C 99.387 156.597,92.897 168.025,88.748 179.558 C 88.489 180.277,88.177 180.904,88.055 180.951 C 87.933 180.997,87.833 181.159,87.833 181.309 C 87.833 181.460,87.495 182.472,87.083 183.558 C 86.671 184.644,86.333 185.638,86.333 185.767 C 86.333 185.897,86.004 187.108,85.601 188.460 C 85.198 189.811,84.787 191.329,84.687 191.833 C 84.587 192.338,84.284 193.592,84.012 194.621 C 83.741 195.649,83.445 196.999,83.355 197.621 C 83.265 198.242,82.920 200.250,82.589 202.083 C 82.257 203.917,81.918 206.392,81.835 207.583 C 81.752 208.775,81.607 210.425,81.514 211.250 C 81.420 212.075,81.262 214.575,81.163 216.806 L 80.982 220.861 81.441 221.472 C 82.829 223.318,90.991 231.073,94.551 233.928 C 108.797 245.352,129.255 256.861,148.000 263.996 C 148.688 264.257,149.550 264.601,149.917 264.758 C 154.508 266.736,168.337 271.294,177.083 273.714 C 187.305 276.542,200.810 279.525,208.833 280.728 C 218.237 282.138,220.832 282.476,228.250 283.253 C 238.276 284.303,255.915 284.589,266.417 283.871 C 280.029 282.940,292.740 280.635,302.917 277.251 C 306.974 275.902,309.167 275.000,309.167 274.680 C 309.167 274.599,309.413 274.094,309.715 273.558 C 310.016 273.022,310.364 272.321,310.488 272.000 C 310.611 271.679,311.040 270.748,311.440 269.931 C 311.840 269.114,312.167 268.351,312.167 268.235 C 312.167 268.119,312.419 267.475,312.727 266.804 C 313.035 266.133,313.383 265.283,313.500 264.917 C 313.617 264.550,313.925 263.725,314.185 263.083 C 314.759 261.669,316.408 256.677,316.734 255.365 C 316.864 254.843,317.235 253.479,317.558 252.333 C 318.371 249.457,319.491 244.523,319.676 243.008 C 319.760 242.316,320.049 240.440,320.318 238.839 C 320.641 236.915,320.755 235.831,320.654 235.643 C 320.570 235.486,320.536 235.258,320.578 235.137 C 320.749 234.645,321.175 229.153,321.335 225.382 C 321.700 216.762,320.860 206.732,318.995 197.469 C 318.539 195.206,318.166 193.106,318.165 192.802 C 318.163 192.293,318.021 191.730,317.003 188.167 C 316.024 184.744,314.065 179.009,313.774 178.718 C 313.715 178.659,313.666 178.455,313.666 178.264 C 313.665 178.073,313.328 177.169,312.916 176.255 C 312.504 175.342,312.167 174.520,312.167 174.429 C 312.167 174.104,309.105 167.678,308.044 165.776 C 307.745 165.240,307.500 164.706,307.500 164.590 C 307.500 164.473,307.361 164.199,307.190 163.981 C 307.020 163.762,306.561 162.983,306.170 162.250 C 305.779 161.517,305.366 160.804,305.251 160.667 C 305.137 160.529,304.798 159.967,304.499 159.417 C 304.199 158.867,303.740 158.121,303.477 157.759 C 303.215 157.397,303.000 157.050,303.000 156.987 C 303.000 156.820,300.624 153.267,300.287 152.930 C 300.129 152.772,300.000 152.552,300.000 152.442 C 300.000 152.331,299.779 151.980,299.509 151.662 C 299.238 151.344,298.450 150.305,297.758 149.353 C 297.065 148.401,296.255 147.335,295.957 146.985 C 295.660 146.634,295.079 145.927,294.667 145.414 C 289.864 139.434,283.259 132.828,277.257 128.000 C 276.744 127.587,275.961 126.950,275.518 126.583 C 275.075 126.217,273.980 125.392,273.084 124.750 C 272.189 124.108,271.335 123.462,271.187 123.313 C 271.038 123.164,270.654 122.910,270.333 122.748 C 270.012 122.586,269.708 122.390,269.658 122.311 C 269.531 122.116,265.827 119.667,265.659 119.667 C 265.585 119.667,265.425 119.568,265.304 119.448 C 265.182 119.328,264.521 118.904,263.833 118.507 C 263.146 118.110,262.283 117.585,261.917 117.339 C 261.550 117.094,260.762 116.644,260.167 116.340 C 259.571 116.036,258.904 115.647,258.686 115.477 C 258.467 115.306,258.194 115.167,258.079 115.167 C 257.963 115.167,257.430 114.906,256.893 114.588 C 256.356 114.270,255.729 113.926,255.500 113.823 C 255.271 113.720,254.408 113.313,253.583 112.918 C 250.419 111.403,248.809 110.667,248.661 110.667 C 248.576 110.667,247.746 110.329,246.815 109.917 C 245.885 109.504,245.045 109.167,244.949 109.167 C 244.853 109.167,243.944 108.838,242.929 108.436 C 240.929 107.645,238.596 106.842,236.750 106.309 C 234.131 105.554,232.859 105.181,231.764 104.849 C 231.129 104.657,230.443 104.500,230.239 104.500 C 230.034 104.500,228.828 104.242,227.559 103.926 C 226.289 103.610,224.800 103.276,224.250 103.184 C 216.912 101.955,214.954 101.685,211.917 101.484 C 208.432 101.254,195.879 101.158,193.000 101.341 M90.857 269.042 C 91.388 270.360,91.868 271.378,93.629 274.917 C 95.451 278.577,96.269 280.115,96.649 280.598 C 96.842 280.844,97.000 281.132,97.000 281.239 C 97.000 281.345,97.337 281.946,97.750 282.574 C 98.162 283.202,98.500 283.768,98.500 283.833 C 98.500 283.962,100.030 286.348,100.836 287.475 C 101.121 287.874,101.420 288.373,101.500 288.584 C 101.581 288.795,101.728 289.018,101.827 289.079 C 101.927 289.141,102.447 289.844,102.983 290.641 C 103.519 291.438,104.079 292.192,104.229 292.316 C 104.378 292.439,104.501 292.625,104.501 292.729 C 104.502 292.832,104.859 293.344,105.293 293.867 C 105.728 294.390,106.533 295.392,107.083 296.095 C 108.750 298.226,110.170 299.905,110.425 300.048 C 110.558 300.122,110.666 300.273,110.665 300.383 C 110.663 300.573,111.029 300.976,112.875 302.815 C 113.310 303.249,113.667 303.654,113.667 303.715 C 113.667 303.829,118.475 308.601,119.833 309.835 C 120.246 310.210,120.926 310.832,121.345 311.217 C 123.071 312.803,127.282 316.275,127.893 316.616 C 128.089 316.726,128.587 317.118,129.000 317.487 C 129.412 317.855,129.835 318.159,129.938 318.162 C 130.041 318.165,130.227 318.289,130.351 318.438 C 130.662 318.812,133.438 320.724,136.111 322.404 C 136.829 322.856,137.567 323.358,137.751 323.520 C 137.935 323.683,138.310 323.914,138.585 324.035 C 138.859 324.155,139.414 324.468,139.818 324.729 C 140.222 324.990,140.859 325.368,141.234 325.568 C 141.610 325.768,142.442 326.231,143.083 326.597 C 145.831 328.161,153.264 331.833,153.683 331.833 C 153.774 331.833,154.427 332.104,155.133 332.436 C 155.839 332.767,156.979 333.226,157.667 333.456 C 158.354 333.685,158.992 333.928,159.083 333.994 C 159.175 334.061,159.775 334.289,160.417 334.500 C 161.058 334.711,162.408 335.178,163.417 335.537 C 164.425 335.896,165.550 336.252,165.917 336.327 C 166.283 336.402,167.333 336.706,168.250 337.002 C 169.167 337.298,170.254 337.614,170.667 337.705 C 171.079 337.796,172.654 338.173,174.167 338.541 C 175.679 338.910,177.404 339.273,178.000 339.347 C 178.596 339.422,180.058 339.670,181.250 339.900 C 192.338 342.037,210.063 342.010,221.833 339.840 C 223.254 339.578,224.754 339.317,225.167 339.259 C 226.142 339.124,231.095 337.933,233.333 337.296 C 234.296 337.023,235.734 336.621,236.529 336.404 C 237.324 336.186,238.674 335.745,239.529 335.422 C 240.384 335.100,241.182 334.835,241.302 334.835 C 241.423 334.834,242.248 334.537,243.136 334.175 C 244.024 333.813,245.118 333.394,245.568 333.243 C 246.018 333.092,246.925 332.713,247.582 332.401 C 248.240 332.089,248.864 331.833,248.968 331.833 C 249.426 331.833,259.758 326.691,260.481 326.104 C 260.607 326.001,261.000 325.767,261.354 325.583 C 262.585 324.944,264.256 323.943,265.152 323.307 C 265.648 322.955,266.117 322.667,266.193 322.667 C 266.316 322.667,267.952 321.566,268.167 321.338 C 268.212 321.290,268.531 321.107,268.875 320.932 C 269.219 320.757,269.500 320.554,269.500 320.481 C 269.500 320.407,269.856 320.142,270.292 319.890 C 270.727 319.638,271.121 319.388,271.167 319.334 C 271.212 319.279,271.911 318.750,272.719 318.159 C 273.527 317.567,274.475 316.858,274.826 316.583 C 280.089 312.463,280.028 312.526,278.534 312.691 C 257.524 315.005,234.607 314.508,211.667 311.241 C 203.405 310.065,202.029 309.836,194.667 308.420 C 177.127 305.044,158.151 299.715,142.417 293.745 C 141.042 293.224,139.354 292.584,138.667 292.325 C 135.479 291.120,128.612 288.227,123.417 285.899 C 120.608 284.642,109.239 278.963,107.083 277.741 C 106.167 277.222,104.217 276.121,102.750 275.294 C 101.283 274.468,99.633 273.513,99.083 273.174 C 98.533 272.834,97.371 272.120,96.500 271.588 C 95.629 271.055,93.934 269.992,92.732 269.226 C 91.531 268.460,90.508 267.833,90.459 267.833 C 90.410 267.833,90.589 268.377,90.857 269.042 " stroke="none" fill="#9c344c" fill-rule="evenodd"></path><path id="path2" d="M92.083 58.610 C 91.236 58.712,88.465 59.163,87.517 59.354 C 80.452 60.776,71.645 66.577,67.468 72.558 C 66.946 73.305,66.341 74.142,66.123 74.417 C 65.765 74.868,65.446 75.418,64.138 77.833 C 63.914 78.246,63.630 78.846,63.506 79.167 C 63.383 79.487,63.098 80.162,62.873 80.667 C 62.416 81.694,61.822 83.617,61.096 86.417 C 60.319 89.410,60.231 96.919,60.931 100.500 C 61.597 103.911,63.391 108.723,65.001 111.417 C 65.274 111.875,65.549 112.362,65.610 112.500 C 65.672 112.638,65.935 113.023,66.194 113.357 C 66.454 113.691,66.667 114.037,66.667 114.126 C 66.667 114.214,66.953 114.616,67.302 115.018 C 67.652 115.421,68.065 115.938,68.221 116.167 C 69.158 117.545,74.592 122.665,75.119 122.667 C 75.191 122.667,75.502 122.883,75.809 123.145 C 76.337 123.596,78.656 124.970,79.750 125.479 C 80.025 125.608,80.775 125.958,81.417 126.258 C 82.058 126.558,83.071 126.958,83.667 127.147 C 84.262 127.336,85.200 127.645,85.750 127.834 C 86.981 128.257,88.480 128.610,89.583 128.737 C 90.042 128.790,91.017 128.917,91.750 129.021 C 93.455 129.262,98.186 129.261,99.917 129.019 C 100.650 128.916,101.625 128.791,102.083 128.740 C 103.558 128.577,107.957 127.272,109.540 126.529 C 112.052 125.349,113.148 124.792,114.105 124.207 C 115.516 123.345,117.302 122.106,118.000 121.504 C 118.321 121.227,118.911 120.720,119.312 120.375 C 120.858 119.048,123.581 116.116,124.007 115.320 C 124.118 115.113,124.536 114.541,124.937 114.049 C 125.339 113.557,125.667 113.070,125.667 112.968 C 125.667 112.865,125.858 112.531,126.092 112.224 C 127.377 110.539,129.942 104.237,130.252 102.000 C 130.284 101.771,130.395 101.209,130.498 100.751 C 131.370 96.892,131.405 91.077,130.578 87.301 C 130.444 86.688,130.297 85.938,130.253 85.635 C 129.921 83.372,127.639 77.792,126.133 75.559 C 125.876 75.179,125.667 74.820,125.667 74.760 C 125.667 74.701,125.348 74.228,124.958 73.708 C 124.569 73.189,124.175 72.640,124.083 72.488 C 123.408 71.370,119.472 67.192,118.692 66.766 C 118.541 66.683,118.109 66.346,117.732 66.016 C 116.957 65.338,114.607 63.667,114.428 63.667 C 114.363 63.667,113.976 63.437,113.567 63.155 C 113.158 62.874,112.395 62.454,111.870 62.223 C 111.346 61.991,110.371 61.546,109.705 61.234 C 109.038 60.922,108.427 60.667,108.347 60.667 C 108.267 60.667,107.276 60.358,106.146 59.980 C 105.016 59.602,103.602 59.228,103.004 59.148 C 102.406 59.069,101.204 58.892,100.333 58.755 C 98.887 58.528,93.552 58.434,92.083 58.610 M321.375 217.083 C 321.377 217.450,321.411 217.580,321.451 217.373 C 321.491 217.166,321.490 216.866,321.448 216.706 C 321.406 216.547,321.374 216.717,321.375 217.083 M83.167 223.583 C 83.478 223.904,83.770 224.167,83.815 224.167 C 83.861 224.167,83.644 223.904,83.333 223.583 C 83.022 223.262,82.730 223.000,82.685 223.000 C 82.639 223.000,82.856 223.262,83.167 223.583 M321.372 225.500 C 321.372 225.821,321.406 225.952,321.448 225.792 C 321.490 225.631,321.490 225.369,321.448 225.208 C 321.406 225.048,321.372 225.179,321.372 225.500 M87.500 227.917 C 87.811 228.237,88.103 228.500,88.149 228.500 C 88.195 228.500,87.978 228.237,87.667 227.917 C 87.356 227.596,87.064 227.333,87.018 227.333 C 86.972 227.333,87.189 227.596,87.500 227.917 M238.125 284.118 C 238.331 284.157,238.669 284.157,238.875 284.118 C 239.081 284.078,238.912 284.045,238.500 284.045 C 238.088 284.045,237.919 284.078,238.125 284.118 M264.292 284.118 C 264.498 284.157,264.835 284.157,265.042 284.118 C 265.248 284.078,265.079 284.045,264.667 284.045 C 264.254 284.045,264.085 284.078,264.292 284.118 M241.627 284.285 C 241.834 284.324,242.134 284.323,242.294 284.281 C 242.453 284.239,242.283 284.207,241.917 284.209 C 241.550 284.211,241.420 284.245,241.627 284.285 M261.042 284.282 C 261.202 284.323,261.465 284.323,261.625 284.282 C 261.785 284.240,261.654 284.205,261.333 284.205 C 261.012 284.205,260.881 284.240,261.042 284.282 M249.718 284.458 C 250.892 284.487,252.767 284.487,253.885 284.458 C 255.002 284.429,254.042 284.405,251.750 284.406 C 249.458 284.406,248.544 284.429,249.718 284.458 M243.125 313.951 C 243.331 313.991,243.669 313.991,243.875 313.951 C 244.081 313.911,243.912 313.879,243.500 313.879 C 243.088 313.879,242.919 313.911,243.125 313.951 M259.627 313.951 C 259.834 313.991,260.134 313.990,260.294 313.948 C 260.453 313.906,260.283 313.874,259.917 313.875 C 259.550 313.877,259.420 313.911,259.627 313.951 " stroke="none" fill="#cc9ca4" fill-rule="evenodd"></path><path id="path3" d="M321.383 218.667 C 321.383 219.171,321.415 219.377,321.453 219.125 C 321.491 218.873,321.491 218.460,321.453 218.208 C 321.415 217.956,321.383 218.162,321.383 218.667 M321.383 224.000 C 321.383 224.504,321.415 224.710,321.453 224.458 C 321.491 224.206,321.491 223.794,321.453 223.542 C 321.415 223.290,321.383 223.496,321.383 224.000 M88.333 228.552 C 88.333 228.581,88.577 228.825,88.875 229.094 L 89.417 229.583 88.927 229.042 C 88.471 228.537,88.333 228.423,88.333 228.552 M233.960 283.785 C 234.168 283.824,234.468 283.823,234.627 283.781 C 234.786 283.739,234.617 283.707,234.250 283.709 C 233.883 283.711,233.753 283.745,233.960 283.785 M268.208 283.782 C 268.369 283.823,268.631 283.823,268.792 283.782 C 268.952 283.740,268.821 283.705,268.500 283.705 C 268.179 283.705,268.048 283.740,268.208 283.782 M236.544 283.953 C 236.797 283.991,237.172 283.990,237.377 283.951 C 237.582 283.911,237.375 283.880,236.917 283.881 C 236.458 283.882,236.291 283.915,236.544 283.953 M265.711 283.953 C 265.964 283.991,266.339 283.990,266.544 283.951 C 266.749 283.911,266.542 283.880,266.083 283.881 C 265.625 283.882,265.457 283.915,265.711 283.953 M239.544 284.120 C 239.797 284.158,240.172 284.157,240.377 284.117 C 240.582 284.078,240.375 284.046,239.917 284.048 C 239.458 284.049,239.291 284.081,239.544 284.120 M262.792 284.118 C 262.998 284.157,263.335 284.157,263.542 284.118 C 263.748 284.078,263.579 284.045,263.167 284.045 C 262.754 284.045,262.585 284.078,262.792 284.118 M243.794 284.285 C 244.001 284.324,244.301 284.323,244.460 284.281 C 244.620 284.239,244.450 284.207,244.083 284.209 C 243.717 284.211,243.586 284.245,243.794 284.285 M258.958 284.284 C 259.165 284.324,259.502 284.324,259.708 284.284 C 259.915 284.245,259.746 284.212,259.333 284.212 C 258.921 284.212,258.752 284.245,258.958 284.284 M227.794 313.118 C 228.001 313.158,228.301 313.156,228.460 313.115 C 228.620 313.073,228.450 313.040,228.083 313.042 C 227.717 313.044,227.586 313.078,227.794 313.118 M274.042 313.115 C 274.202 313.157,274.465 313.157,274.625 313.115 C 274.785 313.073,274.654 313.039,274.333 313.039 C 274.012 313.039,273.881 313.073,274.042 313.115 M229.875 313.282 C 230.035 313.323,230.298 313.323,230.458 313.282 C 230.619 313.240,230.487 313.205,230.167 313.205 C 229.846 313.205,229.715 313.240,229.875 313.282 M241.127 313.951 C 241.334 313.991,241.634 313.990,241.794 313.948 C 241.953 313.906,241.783 313.874,241.417 313.875 C 241.050 313.877,240.920 313.911,241.127 313.951 M261.542 313.948 C 261.702 313.990,261.965 313.990,262.125 313.948 C 262.285 313.906,262.154 313.872,261.833 313.872 C 261.512 313.872,261.381 313.906,261.542 313.948 M248.625 314.125 C 250.298 314.152,253.035 314.152,254.708 314.125 C 256.381 314.098,255.012 314.075,251.667 314.075 C 248.321 314.075,246.952 314.098,248.625 314.125 " stroke="none" fill="#bc7c88" fill-rule="evenodd"></path><path id="path4" d="M242.708 284.282 C 242.869 284.323,243.131 284.323,243.292 284.282 C 243.452 284.240,243.321 284.205,243.000 284.205 C 242.679 284.205,242.548 284.240,242.708 284.282 " stroke="none" fill="#c48c9c" fill-rule="evenodd"></path></g></svg>