<svg version="1.1" id="Layer_1" xmlns="http://www.w3.org/2000/svg" xmlns:xlink="http://www.w3.org/1999/xlink" x="0px" y="0px"
	 width="100%" viewBox="0 0 2664 2664" enable-background="new 0 0 2664 2664" xml:space="preserve">
<path fill="#FFFFFF" opacity="1.000000" stroke="none" 
	d="
M1710.000000,2666.000000 
	C1140.000000,2666.000000 571.000000,2666.000000 2.000000,2666.000000 
	C2.000000,1778.000000 2.000000,890.000000 2.000000,2.000000 
	C890.000000,2.000000 1778.000000,2.000000 2666.000000,2.000000 
	C2666.000000,890.000000 2666.000000,1778.000000 2666.000000,2666.000000 
	C2347.666748,2666.000000 2029.333374,2666.000000 1710.000000,2666.000000 
M607.949768,1786.981812 
	C607.495850,1787.070679 607.041870,1787.159546 606.587952,1787.248413 
	C606.884094,1787.681396 607.180176,1788.114380 607.505249,1790.017456 
	C629.831055,1842.952148 657.856689,1892.699707 691.022522,1939.585815 
	C713.727539,1971.683838 738.805298,2001.842896 765.870056,2030.311768 
	C789.043640,2054.687744 813.842834,2077.379395 840.017822,2098.513184 
	C893.606018,2141.780518 951.639771,2177.866211 1014.446899,2206.247803 
	C1072.567139,2232.511475 1132.972412,2251.481689 1195.603882,2263.374512 
	C1227.574951,2269.445312 1259.841797,2274.061035 1292.303711,2275.416260 
	C1338.818237,2277.357666 1385.391968,2277.687744 1431.826294,2272.365234 
	C1468.824585,2268.124268 1505.393188,2261.717285 1541.492432,2252.609619 
	C1601.714233,2237.415771 1659.286011,2215.360840 1714.383545,2186.639404 
	C1766.238403,2159.608398 1814.435547,2127.228760 1859.203491,2089.676758 
	C1860.818848,2088.322021 1862.083008,2086.548828 1864.333496,2084.061279 
	C1860.593506,2084.233887 1858.303345,2084.289795 1856.020752,2084.452637 
	C1813.179810,2087.514160 1770.384888,2091.946045 1727.489990,2093.364990 
	C1649.169922,2095.955811 1570.986816,2092.327881 1492.976685,2084.494629 
	C1426.998535,2077.869629 1361.480591,2068.257080 1296.454224,2055.464600 
	C1179.325195,2032.422119 1064.638550,2000.574829 952.806946,1958.643433 
	C834.575745,1914.312378 721.316956,1859.976685 615.194702,1791.229980 
	C613.026306,1789.825439 610.520752,1788.941284 607.949768,1786.981812 
M2022.419556,1050.595215 
	C2019.579712,1046.093018 2016.825562,1041.534058 2013.887085,1037.097168 
	C1973.053833,975.444275 1925.007446,920.099182 1869.092285,871.643066 
	C1817.782593,827.178040 1761.804688,789.642090 1701.035522,759.400574 
	C1645.154663,731.591736 1586.748901,710.614197 1525.920776,696.474121 
	C1477.940552,685.320679 1429.268188,678.473389 1380.129028,676.642151 
	C1343.618164,675.281494 1307.014893,675.682556 1270.483643,679.443420 
	C1239.071411,682.677185 1207.948975,687.145264 1177.036743,693.556152 
	C1112.538208,706.932434 1050.926147,728.577637 991.787231,757.398865 
	C955.527954,775.069763 920.988586,795.702820 887.817322,818.642700 
	C852.996216,842.723572 820.364929,869.505737 789.835754,898.799438 
	C766.279968,921.402039 744.478577,945.604736 723.876465,970.992065 
	C663.847778,1044.963745 618.382019,1127.001831 586.944763,1216.777710 
	C558.710571,1297.406250 545.337769,1380.732178 543.581116,1466.043335 
	C543.441650,1472.816528 545.283936,1477.901978 549.946899,1482.974609 
	C583.444031,1519.414185 620.326050,1552.049927 659.844788,1581.753540 
	C735.278198,1638.451538 816.741638,1684.990356 902.480286,1724.021729 
	C1127.872437,1826.628540 1364.562378,1883.294312 1611.753418,1895.275146 
	C1714.147949,1900.237915 1816.249756,1895.538696 1917.266113,1876.034302 
	C1963.442993,1867.118286 2008.760864,1855.199341 2052.673828,1838.179077 
	C2057.562744,1836.284302 2061.093262,1833.731445 2063.533447,1828.821533 
	C2079.849121,1795.994385 2093.660889,1762.119629 2104.955811,1727.302124 
	C2123.151855,1671.210815 2135.508545,1613.904053 2140.710938,1554.991577 
	C2145.713379,1498.344482 2145.916748,1441.811035 2139.380127,1385.385864 
	C2132.510742,1326.088623 2120.021240,1267.975220 2100.078857,1211.535767 
	C2080.265625,1155.462769 2054.689209,1102.239258 2022.419556,1050.595215 
M509.914124,823.128601 
	C526.932190,834.355347 544.919128,843.714233 564.259460,850.199219 
	C593.107056,859.872070 622.608276,864.322632 653.213806,862.440796 
	C667.876831,861.539307 682.351196,860.201294 696.535034,856.666992 
	C744.993469,844.592224 785.916992,820.133118 818.985229,782.415222 
	C851.381226,745.464111 870.442688,702.407349 875.391541,653.980408 
	C879.125122,617.446045 876.069519,581.088135 862.548645,546.022095 
	C846.594971,504.646637 822.008057,469.961548 787.327942,442.360382 
	C749.756897,412.458221 706.513428,396.698334 659.157349,392.462738 
	C639.700500,390.722534 620.072021,392.111633 600.597046,395.633911 
	C542.148682,406.204865 493.772705,434.165497 457.176331,480.643707 
	C416.713440,532.032471 400.059448,590.850952 407.737274,656.252930 
	C410.791962,682.273865 418.001923,707.008850 429.417633,730.466003 
	C447.705292,768.043518 474.120636,798.750305 509.914124,823.128601 
z"/>
<path fill="#99374B" opacity="1.000000" stroke="none" 
	d="
M2022.805420,1051.212158 
	C2054.689209,1102.239258 2080.265625,1155.462769 2100.078857,1211.535767 
	C2120.021240,1267.975220 2132.510742,1326.088623 2139.380127,1385.385864 
	C2145.916748,1441.811035 2145.713379,1498.344482 2140.710938,1554.991577 
	C2135.508545,1613.904053 2123.151855,1671.210815 2104.955811,1727.302124 
	C2093.660889,1762.119629 2079.849121,1795.994385 2063.533447,1828.821533 
	C2061.093262,1833.731445 2057.562744,1836.284302 2052.673828,1838.179077 
	C2008.760864,1855.199341 1963.442993,1867.118286 1917.266113,1876.034302 
	C1816.249756,1895.538696 1714.147949,1900.237915 1611.753418,1895.275146 
	C1364.562378,1883.294312 1127.872437,1826.628540 902.480286,1724.021729 
	C816.741638,1684.990356 735.278198,1638.451538 659.844788,1581.753540 
	C620.326050,1552.049927 583.444031,1519.414185 549.946899,1482.974609 
	C545.283936,1477.901978 543.441650,1472.816528 543.581116,1466.043335 
	C545.337769,1380.732178 558.710571,1297.406250 586.944763,1216.777710 
	C618.382019,1127.001831 663.847778,1044.963745 723.876465,970.992065 
	C744.478577,945.604736 766.279968,921.402039 789.835754,898.799438 
	C820.364929,869.505737 852.996216,842.723572 887.817322,818.642700 
	C920.988586,795.702820 955.527954,775.069763 991.787231,757.398865 
	C1050.926147,728.577637 1112.538208,706.932434 1177.036743,693.556152 
	C1207.948975,687.145264 1239.071411,682.677185 1270.483643,679.443420 
	C1307.014893,675.682556 1343.618164,675.281494 1380.129028,676.642151 
	C1429.268188,678.473389 1477.940552,685.320679 1525.920776,696.474121 
	C1586.748901,710.614197 1645.154663,731.591736 1701.035522,759.400574 
	C1761.804688,789.642090 1817.782593,827.178040 1869.092285,871.643066 
	C1925.007446,920.099182 1973.053833,975.444275 2013.887085,1037.097168 
	C2016.825562,1041.534058 2019.579712,1046.093018 2022.805420,1051.212158 
z"/>
<path fill="#99384C" opacity="1.000000" stroke="none" 
	d="
M608.172485,1787.814331 
	C610.520752,1788.941284 613.026306,1789.825439 615.194702,1791.229980 
	C721.316956,1859.976685 834.575745,1914.312378 952.806946,1958.643433 
	C1064.638550,2000.574829 1179.325195,2032.422119 1296.454224,2055.464600 
	C1361.480591,2068.257080 1426.998535,2077.869629 1492.976685,2084.494629 
	C1570.986816,2092.327881 1649.169922,2095.955811 1727.489990,2093.364990 
	C1770.384888,2091.946045 1813.179810,2087.514160 1856.020752,2084.452637 
	C1858.303345,2084.289795 1860.593506,2084.233887 1864.333496,2084.061279 
	C1862.083008,2086.548828 1860.818848,2088.322021 1859.203491,2089.676758 
	C1814.435547,2127.228760 1766.238403,2159.608398 1714.383545,2186.639404 
	C1659.286011,2215.360840 1601.714233,2237.415771 1541.492432,2252.609619 
	C1505.393188,2261.717285 1468.824585,2268.124268 1431.826294,2272.365234 
	C1385.391968,2277.687744 1338.818237,2277.357666 1292.303711,2275.416260 
	C1259.841797,2274.061035 1227.574951,2269.445312 1195.603882,2263.374512 
	C1132.972412,2251.481689 1072.567139,2232.511475 1014.446899,2206.247803 
	C951.639771,2177.866211 893.606018,2141.780518 840.017822,2098.513184 
	C813.842834,2077.379395 789.043640,2054.687744 765.870056,2030.311768 
	C738.805298,2001.842896 713.727539,1971.683838 691.022522,1939.585815 
	C657.856689,1892.699707 629.831055,1842.952148 607.664429,1789.098877 
	C607.823547,1788.180176 608.172485,1787.814331 608.172485,1787.814331 
z"/>
<path fill="#B3B3B3" opacity="1.000000" stroke="none" 
	d="
M509.304260,822.737671 
	C474.120636,798.750305 447.705292,768.043518 429.417633,730.466003 
	C418.001923,707.008850 410.791962,682.273865 407.737274,656.252930 
	C400.059448,590.850952 416.713440,532.032471 457.176331,480.643707 
	C493.772705,434.165497 542.148682,406.204865 600.597046,395.633911 
	C620.072021,392.111633 639.700500,390.722534 659.157349,392.462738 
	C706.513428,396.698334 749.756897,412.458221 787.327942,442.360382 
	C822.008057,469.961548 846.594971,504.646637 862.548645,546.022095 
	C876.069519,581.088135 879.125122,617.446045 875.391541,653.980408 
	C870.442688,702.407349 851.381226,745.464111 818.985229,782.415222 
	C785.916992,820.133118 744.993469,844.592224 696.535034,856.666992 
	C682.351196,860.201294 667.876831,861.539307 653.213806,862.440796 
	C622.608276,864.322632 593.107056,859.872070 564.259460,850.199219 
	C544.919128,843.714233 526.932190,834.355347 509.304260,822.737671 
z"/>
<path fill="#99384C" opacity="1.000000" stroke="none" 
	d="
M607.649902,1788.363770 
	C607.180176,1788.114380 606.884094,1787.681396 606.587952,1787.248413 
	C607.041870,1787.159546 607.495850,1787.070679 608.061157,1787.398071 
	C608.172485,1787.814331 607.823547,1788.180176 607.649902,1788.363770 
z"/>
</svg>