<svg version="1.1" id="Layer_1" xmlns="http://www.w3.org/2000/svg" xmlns:xlink="http://www.w3.org/1999/xlink" x="0px" y="0px"
	 width="100%" viewBox="0 0 2664 2664" enable-background="new 0 0 2664 2664" xml:space="preserve">
<path fill="#3B1A27" opacity="1.000000" stroke="none" 
	d="
M8.000033,2666.000000 
	C7.111115,2666.000000 6.222229,2666.000000 4.842402,2665.076172 
	C4.337869,2660.485596 4.312379,2656.819336 4.312372,2653.152832 
	C4.310631,1775.183228 4.310649,897.213562 4.310925,19.243929 
	C4.310926,16.910679 4.177309,14.567043 4.353115,12.246976 
	C4.545251,9.711402 5.025117,7.197631 5.474304,4.000000 
	C892.798401,4.000000 1779.399170,4.000000 2666.000000,4.000000 
	C2666.000000,890.065430 2666.000000,1776.130859 2665.083984,2663.098145 
	C1783.191284,2664.000000 902.214233,2664.000000 21.237289,2664.000244 
	C18.237373,2664.000244 15.216085,2663.794922 12.246676,2664.096924 
	C10.781782,2664.246094 9.412580,2665.335938 8.000033,2666.000000 
M730.052612,962.064026 
	C730.052612,962.064026 730.019348,961.795837 728.363647,961.144470 
	C699.777466,967.414856 670.973206,972.837646 642.648804,980.125549 
	C576.314087,997.193542 512.586365,1021.118286 453.249908,1055.814331 
	C406.544769,1083.124390 364.642120,1116.173950 331.425873,1159.344238 
	C291.225708,1211.591309 270.760895,1270.580444 272.251801,1336.681396 
	C273.225128,1379.836060 283.848938,1420.936157 300.878235,1460.434692 
	C325.542267,1517.641724 361.045471,1567.725342 402.466095,1613.834595 
	C460.047241,1677.933594 526.505920,1731.611572 597.710083,1779.693359 
	C601.275024,1782.100464 604.634277,1784.812134 608.117065,1788.956421 
	C609.479797,1792.703491 610.474976,1796.636841 612.263672,1800.168091 
	C625.796875,1826.885742 638.566650,1854.044678 653.310974,1880.082886 
	C687.467590,1940.403442 730.381958,1994.232544 779.141663,2043.322632 
	C795.762024,2060.055908 813.772095,2075.466797 831.718872,2090.813232 
	C871.581360,2124.900146 914.872620,2154.154053 960.890076,2179.220459 
	C1028.839600,2216.233643 1100.630737,2243.138184 1176.413330,2259.159424 
	C1220.064941,2268.388184 1264.127930,2274.753906 1308.749390,2275.877197 
	C1351.330444,2276.948730 1393.965698,2277.097412 1436.347778,2271.761963 
	C1474.297974,2266.984131 1511.842041,2260.111816 1548.913452,2250.393311 
	C1602.607300,2236.317139 1654.136597,2216.655762 1703.660522,2191.819092 
	C1745.398315,2170.887207 1785.145874,2146.532959 1822.333740,2118.221924 
	C1836.594849,2107.364990 1850.159790,2095.593262 1865.627808,2083.763916 
	C1868.584106,2083.270508 1871.526123,2082.659180 1874.498657,2082.301270 
	C1930.760010,2075.524414 1986.285400,2064.892822 2040.863281,2049.656494 
	C2104.887939,2031.783325 2166.559326,2008.065430 2223.721191,1973.637939 
	C2268.032227,1946.949951 2307.746338,1914.868530 2339.546387,1873.677124 
	C2372.039307,1831.588135 2392.132812,1784.295410 2397.418701,1731.268799 
	C2401.635498,1688.968018 2396.241211,1647.546265 2383.111084,1607.125854 
	C2365.299316,1552.292114 2336.462402,1503.494263 2301.257568,1458.254517 
	C2250.539551,1393.079590 2189.875000,1338.288452 2123.326904,1287.859619 
	C2122.295654,1285.065674 2121.125244,1282.314453 2120.254883,1279.471191 
	C2113.145508,1256.248047 2106.704346,1232.799927 2098.901611,1209.813477 
	C2079.108398,1151.503418 2051.538330,1096.899414 2018.537720,1044.989136 
	C1980.602539,985.316833 1934.933594,932.080322 1882.846191,884.459839 
	C1862.986816,866.303711 1841.902954,849.336975 1820.316895,833.250732 
	C1775.879395,800.135254 1728.523560,771.753906 1677.945801,748.826965 
	C1640.266602,731.747009 1601.745850,716.999878 1561.847900,706.092407 
	C1520.427734,694.768799 1478.563354,685.476990 1435.660278,681.720886 
	C1414.153564,679.838074 1392.670532,677.103638 1371.122925,676.399414 
	C1331.194214,675.094421 1291.260498,676.281921 1251.633057,681.880310 
	C1225.983521,685.503967 1200.275391,689.137024 1174.926392,694.376465 
	C1114.352661,706.896667 1056.274902,727.059692 1000.425598,753.703918 
	C943.955017,780.644531 891.319580,813.656921 842.651001,852.938232 
	C809.959412,879.324219 779.114258,907.704346 751.321411,939.305969 
	C744.963257,946.535461 738.173401,953.385254 730.472229,960.592529 
	C730.243469,961.097534 730.014709,961.602478 730.052612,962.064026 
M582.908020,399.777496 
	C580.015625,400.558624 577.100220,401.263855 574.234070,402.131775 
	C455.271820,438.155609 387.161743,556.450073 410.814819,673.713745 
	C436.595306,801.524475 558.716736,882.915222 686.934692,858.131165 
	C807.318726,834.861511 895.013245,720.195679 873.238342,588.533020 
	C850.771118,452.684570 717.949829,366.474518 582.908020,399.777496 
z"/>
<path fill="#7C676F" opacity="1.000000" stroke="none" 
	d="
M2666.000000,3.000000 
	C1779.399170,4.000000 892.798401,4.000000 5.474304,4.000000 
	C5.025117,7.197631 4.545251,9.711402 4.353115,12.246976 
	C4.177309,14.567043 4.310926,16.910679 4.310925,19.243929 
	C4.310649,897.213562 4.310631,1775.183228 4.312372,2653.152832 
	C4.312379,2656.819336 4.337869,2660.485596 4.175701,2665.076172 
	C3.333275,2665.666992 2.112327,2665.368652 2.088863,2664.994873 
	C1.922014,2662.339111 2.000000,2659.668213 2.000000,2657.001953 
	C2.000000,1772.167725 2.000000,887.333496 2.000000,2.000000 
	C889.999939,2.000000 1778.000000,2.000000 2666.000000,3.000000 
z"/>
<path fill="#533642" opacity="1.000000" stroke="none" 
	d="
M8.915939,2666.000000 
	C9.412580,2665.335938 10.781782,2664.246094 12.246676,2664.096924 
	C15.216085,2663.794922 18.237373,2664.000244 21.237289,2664.000244 
	C902.214233,2664.000000 1783.191284,2664.000000 2665.084229,2664.000000 
	C2665.667236,2664.666748 2665.369141,2665.887695 2664.995605,2665.910889 
	C2662.340088,2666.077637 2659.669189,2666.000000 2657.003418,2666.000000 
	C1774.612915,2666.000000 892.222351,2666.000000 8.915939,2666.000000 
z"/>
<path fill="#99374B" opacity="1.000000" stroke="none" 
	d="
M731.582275,960.409851 
	C738.173401,953.385254 744.963257,946.535461 751.321411,939.305969 
	C779.114258,907.704346 809.959412,879.324219 842.651001,852.938232 
	C891.319580,813.656921 943.955017,780.644531 1000.425598,753.703918 
	C1056.274902,727.059692 1114.352661,706.896667 1174.926392,694.376465 
	C1200.275391,689.137024 1225.983521,685.503967 1251.633057,681.880310 
	C1291.260498,676.281921 1331.194214,675.094421 1371.122925,676.399414 
	C1392.670532,677.103638 1414.153564,679.838074 1435.660278,681.720886 
	C1478.563354,685.476990 1520.427734,694.768799 1561.847900,706.092407 
	C1601.745850,716.999878 1640.266602,731.747009 1677.945801,748.826965 
	C1728.523560,771.753906 1775.879395,800.135254 1820.316895,833.250732 
	C1841.902954,849.336975 1862.986816,866.303711 1882.846191,884.459839 
	C1934.933594,932.080322 1980.602539,985.316833 2018.537720,1044.989136 
	C2051.538330,1096.899414 2079.108398,1151.503418 2098.901611,1209.813477 
	C2106.704346,1232.799927 2113.145508,1256.248047 2120.254883,1279.471191 
	C2121.125244,1282.314453 2122.295654,1285.065674 2123.299072,1289.366577 
	C2123.635742,1293.173706 2123.865723,1295.504639 2124.383789,1297.769775 
	C2143.910400,1383.153687 2149.041504,1469.419312 2140.441406,1556.554688 
	C2139.891357,1562.127319 2140.282471,1567.792847 2139.702148,1574.043701 
	C2136.641602,1590.366455 2134.455811,1606.124390 2131.529297,1621.743652 
	C2118.372314,1691.965942 2096.704102,1759.423584 2065.400146,1823.722900 
	C2063.823486,1826.961060 2062.938477,1830.535645 2061.213867,1834.436157 
	C2046.951172,1839.954956 2033.348145,1845.426636 2019.438477,1849.956909 
	C1928.777954,1879.484497 1835.208374,1891.814697 1740.384399,1895.590332 
	C1681.110718,1897.950317 1621.828613,1896.875977 1562.598633,1892.497559 
	C1512.076660,1888.762939 1461.783081,1883.220459 1411.758545,1875.434082 
	C1317.893555,1860.824097 1225.467651,1839.764648 1134.590820,1812.024780 
	C1009.001770,1773.689209 888.282104,1723.944336 774.676697,1657.699951 
	C705.683228,1617.469116 640.498474,1571.940674 582.835022,1516.348267 
	C569.215454,1503.217773 556.803955,1488.834106 543.891846,1474.024414 
	C544.255554,1437.505005 547.006042,1402.195923 551.695557,1366.970459 
	C556.565796,1330.387573 564.148438,1294.419800 574.089905,1258.938110 
	C578.922119,1241.691650 584.582092,1224.677002 590.135376,1206.913940 
	C591.235840,1204.481689 592.200806,1202.741821 592.881470,1200.897095 
	C624.359863,1115.588013 669.007385,1037.845337 726.760193,967.611816 
	C728.149536,965.922241 728.946228,963.745422 730.019348,961.795837 
	C730.019348,961.795837 730.052612,962.064026 730.323181,961.934326 
	C731.055664,961.433533 731.385193,960.968628 731.582275,960.409851 
z"/>
<path fill="#FEFEFE" opacity="1.000000" stroke="none" 
	d="
M2140.235840,1573.415161 
	C2140.282471,1567.792847 2139.891357,1562.127319 2140.441406,1556.554688 
	C2149.041504,1469.419312 2143.910400,1383.153687 2124.383789,1297.769775 
	C2123.865723,1295.504639 2123.635742,1293.173706 2123.565186,1290.004150 
	C2189.875000,1338.288452 2250.539551,1393.079590 2301.257568,1458.254517 
	C2336.462402,1503.494263 2365.299316,1552.292114 2383.111084,1607.125854 
	C2396.241211,1647.546265 2401.635498,1688.968018 2397.418701,1731.268799 
	C2392.132812,1784.295410 2372.039307,1831.588135 2339.546387,1873.677124 
	C2307.746338,1914.868530 2268.032227,1946.949951 2223.721191,1973.637939 
	C2166.559326,2008.065430 2104.887939,2031.783325 2040.863281,2049.656494 
	C1986.285400,2064.892822 1930.760010,2075.524414 1874.498657,2082.301270 
	C1871.526123,2082.659180 1868.584106,2083.270508 1863.981934,2083.868408 
	C1816.665161,2089.262451 1770.832153,2092.483887 1724.885986,2093.592285 
	C1654.247070,2095.296875 1583.732422,2092.870850 1513.340454,2086.426514 
	C1457.291748,2081.294922 1401.556885,2074.006104 1346.089722,2064.484863 
	C1226.793335,2044.007202 1109.945312,2014.058105 995.676819,1974.135620 
	C861.312622,1927.192627 732.970642,1867.705688 613.373657,1790.068726 
	C611.725342,1788.998901 609.855713,1788.269897 608.089355,1787.381836 
	C604.634277,1784.812134 601.275024,1782.100464 597.710083,1779.693359 
	C526.505920,1731.611572 460.047241,1677.933594 402.466095,1613.834595 
	C361.045471,1567.725342 325.542267,1517.641724 300.878235,1460.434692 
	C283.848938,1420.936157 273.225128,1379.836060 272.251801,1336.681396 
	C270.760895,1270.580444 291.225708,1211.591309 331.425873,1159.344238 
	C364.642120,1116.173950 406.544769,1083.124390 453.249908,1055.814331 
	C512.586365,1021.118286 576.314087,997.193542 642.648804,980.125549 
	C670.973206,972.837646 699.777466,967.414856 729.191528,961.470154 
	C728.946228,963.745422 728.149536,965.922241 726.760193,967.611816 
	C669.007385,1037.845337 624.359863,1115.588013 592.881470,1200.897095 
	C592.200806,1202.741821 591.235840,1204.481689 589.405640,1207.027832 
	C566.465515,1217.606079 545.330261,1228.992188 526.344849,1243.731689 
	C514.303955,1253.079712 502.752533,1263.333008 492.349854,1274.459595 
	C470.293274,1298.050903 464.547485,1326.035278 473.385284,1356.977295 
	C486.402588,1402.552246 512.667603,1440.263062 543.836670,1475.026978 
	C556.803955,1488.834106 569.215454,1503.217773 582.835022,1516.348267 
	C640.498474,1571.940674 705.683228,1617.469116 774.676697,1657.699951 
	C888.282104,1723.944336 1009.001770,1773.689209 1134.590820,1812.024780 
	C1225.467651,1839.764648 1317.893555,1860.824097 1411.758545,1875.434082 
	C1461.783081,1883.220459 1512.076660,1888.762939 1562.598633,1892.497559 
	C1621.828613,1896.875977 1681.110718,1897.950317 1740.384399,1895.590332 
	C1835.208374,1891.814697 1928.777954,1879.484497 2019.438477,1849.956909 
	C2033.348145,1845.426636 2046.951172,1839.954956 2061.970459,1834.372559 
	C2088.509033,1823.347778 2112.874023,1811.148438 2135.601318,1795.844849 
	C2152.244141,1784.638184 2167.674072,1772.044434 2180.615723,1756.565796 
	C2199.418945,1734.077148 2205.949463,1708.819214 2198.673828,1680.127563 
	C2188.371338,1639.500122 2166.492920,1605.273315 2140.235840,1573.415161 
z"/>
<path fill="#99374B" opacity="1.000000" stroke="none" 
	d="
M608.103210,1788.169189 
	C609.855713,1788.269897 611.725342,1788.998901 613.373657,1790.068726 
	C732.970642,1867.705688 861.312622,1927.192627 995.676819,1974.135620 
	C1109.945312,2014.058105 1226.793335,2044.007202 1346.089722,2064.484863 
	C1401.556885,2074.006104 1457.291748,2081.294922 1513.340454,2086.426514 
	C1583.732422,2092.870850 1654.247070,2095.296875 1724.885986,2093.592285 
	C1770.832153,2092.483887 1816.665161,2089.262451 1863.188965,2084.105713 
	C1850.159790,2095.593262 1836.594849,2107.364990 1822.333740,2118.221924 
	C1785.145874,2146.532959 1745.398315,2170.887207 1703.660522,2191.819092 
	C1654.136597,2216.655762 1602.607300,2236.317139 1548.913452,2250.393311 
	C1511.842041,2260.111816 1474.297974,2266.984131 1436.347778,2271.761963 
	C1393.965698,2277.097412 1351.330444,2276.948730 1308.749390,2275.877197 
	C1264.127930,2274.753906 1220.064941,2268.388184 1176.413330,2259.159424 
	C1100.630737,2243.138184 1028.839600,2216.233643 960.890076,2179.220459 
	C914.872620,2154.154053 871.581360,2124.900146 831.718872,2090.813232 
	C813.772095,2075.466797 795.762024,2060.055908 779.141663,2043.322632 
	C730.381958,1994.232544 687.467590,1940.403442 653.310974,1880.082886 
	C638.566650,1854.044678 625.796875,1826.885742 612.263672,1800.168091 
	C610.474976,1796.636841 609.479797,1792.703491 608.103210,1788.169189 
z"/>
<path fill="#B3B3B3" opacity="1.000000" stroke="none" 
	d="
M583.708801,399.588318 
	C717.949829,366.474518 850.771118,452.684570 873.238342,588.533020 
	C895.013245,720.195679 807.318726,834.861511 686.934692,858.131165 
	C558.716736,882.915222 436.595306,801.524475 410.814819,673.713745 
	C387.161743,556.450073 455.271820,438.155609 574.234070,402.131775 
	C577.100220,401.263855 580.015625,400.558624 583.708801,399.588318 
z"/>
<path fill="#FEFEFE" opacity="1.000000" stroke="none" 
	d="
M731.027222,960.501221 
	C731.385193,960.968628 731.055664,961.433533 730.189819,961.956055 
	C730.014709,961.602478 730.243469,961.097534 731.027222,960.501221 
z"/>
<path fill="#3D1C29" opacity="1.000000" stroke="none" 
	d="
M2139.701904,1574.043701 
	C2166.492920,1605.273315 2188.371338,1639.500122 2198.673828,1680.127563 
	C2205.949463,1708.819214 2199.418945,1734.077148 2180.615723,1756.565796 
	C2167.674072,1772.044434 2152.244141,1784.638184 2135.601318,1795.844849 
	C2112.874023,1811.148438 2088.509033,1823.347778 2062.488281,1833.890137 
	C2062.938477,1830.535645 2063.823486,1826.961060 2065.400146,1823.722900 
	C2096.704102,1759.423584 2118.372314,1691.965942 2131.529297,1621.743652 
	C2134.455811,1606.124390 2136.641602,1590.366455 2139.701904,1574.043701 
z"/>
<path fill="#3D1C29" opacity="1.000000" stroke="none" 
	d="
M543.891846,1474.024414 
	C512.667603,1440.263062 486.402588,1402.552246 473.385284,1356.977295 
	C464.547485,1326.035278 470.293274,1298.050903 492.349854,1274.459595 
	C502.752533,1263.333008 514.303955,1253.079712 526.344849,1243.731689 
	C545.330261,1228.992188 566.465515,1217.606079 589.137573,1207.671387 
	C584.582092,1224.677002 578.922119,1241.691650 574.089905,1258.938110 
	C564.148438,1294.419800 556.565796,1330.387573 551.695557,1366.970459 
	C547.006042,1402.195923 544.255554,1437.505005 543.891846,1474.024414 
z"/>
</svg>