<svg version="1.1" id="Layer_1" xmlns="http://www.w3.org/2000/svg" xmlns:xlink="http://www.w3.org/1999/xlink" x="0px" y="0px"
	 width="100%" viewBox="0 0 2664 2664" enable-background="new 0 0 2664 2664" xml:space="preserve">
<path fill="#7D1D30" opacity="1.000000" stroke="none" 
	d="
M2666.000000,4.000000 
	C2666.000000,891.199402 2666.000000,1778.398804 2666.000000,2666.000000 
	C1779.267944,2666.000000 892.535767,2666.000000 5.059566,2665.073486 
	C4.310037,2661.480957 4.299762,2658.814941 4.299759,2656.148926 
	C4.298959,1776.872559 4.298796,897.596191 4.299072,18.319811 
	C4.299073,16.319950 4.158961,14.306263 4.345847,12.323689 
	C4.584873,9.787989 5.089971,7.277369 5.597462,4.000000 
	C892.863098,4.000000 1779.431519,4.000000 2666.000000,4.000000 
M860.077881,1938.921753 
	C885.279297,1966.004761 910.407715,1993.156250 935.696167,2020.157715 
	C1006.784241,2096.062012 1077.465454,2172.329346 1144.923462,2251.518799 
	C1158.939209,2267.971680 1176.624268,2278.718750 1197.753662,2283.800781 
	C1213.102539,2287.492676 1228.607178,2289.078613 1244.347412,2288.111084 
	C1269.207397,2286.583008 1291.091064,2277.718506 1309.082886,2260.391846 
	C1331.336914,2238.959961 1338.326294,2212.379150 1332.459229,2182.642578 
	C1327.977173,2159.925537 1316.408813,2140.356201 1301.011841,2123.287109 
	C1191.840820,2002.259644 1082.537231,1881.351807 973.287842,1760.395020 
	C970.891235,1757.741455 968.635864,1754.960449 965.825928,1751.665894 
	C969.454163,1749.821777 972.309448,1748.302856 975.221008,1746.900513 
	C1074.150391,1699.247192 1151.510864,1627.841919 1206.993042,1533.375000 
	C1254.639282,1452.250244 1276.914551,1364.621460 1268.116943,1270.156982 
	C1262.912476,1214.273071 1245.696533,1162.085327 1217.646606,1113.577271 
	C1194.557617,1073.648071 1163.967407,1039.900879 1129.599976,1009.413635 
	C1080.815186,966.136780 1027.477051,930.256958 965.392334,908.728821 
	C915.073975,891.280640 863.191895,881.513672 810.129089,877.532532 
	C742.295044,872.443176 674.878967,875.738220 608.124146,888.638245 
	C502.053284,909.135986 403.225250,948.353271 311.436340,1005.374512 
	C297.779205,1013.858582 286.926270,1024.958130 278.873566,1038.589600 
	C258.676117,1072.780273 256.430847,1119.267944 295.030396,1152.732422 
	C305.180664,1161.532349 316.058136,1169.060425 328.388123,1174.443604 
	C331.426361,1175.770020 334.413208,1177.214355 337.827515,1178.790894 
	C337.827515,1183.154663 337.827515,1187.468872 337.827515,1191.783081 
	C337.827545,1518.781616 337.813416,1845.780273 337.915375,2172.778809 
	C337.917755,2180.382812 338.685364,2188.082520 340.011719,2195.575439 
	C352.074615,2263.721436 421.802643,2296.947021 479.973694,2275.759033 
	C514.736511,2263.097168 539.568481,2240.627197 546.996155,2202.911865 
	C549.360413,2190.906982 550.424744,2178.459473 550.454956,2166.210449 
	C550.716125,2060.211670 550.605408,1954.211914 550.605408,1848.212402 
	C550.605408,1844.285156 550.605408,1840.357910 550.605408,1836.104858 
	C553.840393,1835.802002 556.100525,1835.474121 558.369324,1835.395020 
	C620.705994,1833.221924 682.697388,1827.483643 744.194824,1816.964478 
	C749.103088,1816.124878 751.413513,1817.852051 754.274109,1821.050293 
	C789.157898,1860.050659 824.158325,1898.946777 860.077881,1938.921753 
M1809.424805,1427.564575 
	C1778.648193,1396.139404 1747.546509,1365.024048 1717.209351,1333.180176 
	C1697.037476,1312.006470 1673.042358,1297.717651 1644.912598,1291.095459 
	C1607.601685,1282.311890 1573.396484,1289.248413 1544.378418,1315.449829 
	C1529.747681,1328.660522 1520.985229,1345.184814 1519.431396,1365.113281 
	C1517.304810,1392.390869 1525.929565,1416.299072 1542.701660,1437.458008 
	C1549.086670,1445.512939 1555.749512,1453.395020 1562.811646,1460.858276 
	C1612.966431,1513.861450 1663.008789,1566.974854 1713.586914,1619.572388 
	C1751.003052,1658.482422 1789.180298,1696.660645 1826.990479,1735.192261 
	C1829.459961,1737.708984 1831.692383,1740.458374 1834.041992,1743.107544 
	C1831.721069,1746.127197 1829.917358,1748.512573 1828.073975,1750.866821 
	C1791.715210,1797.303467 1755.251587,1843.658569 1719.011719,1890.187744 
	C1658.375854,1968.039429 1600.710205,2047.998535 1549.165161,2132.219727 
	C1542.078979,2143.797607 1536.011597,2156.145996 1530.808960,2168.692139 
	C1524.550659,2183.783447 1523.597168,2199.907471 1527.092773,2215.849121 
	C1534.615723,2250.157959 1556.961548,2272.124512 1588.821899,2283.686035 
	C1638.898804,2301.857910 1692.688354,2285.294434 1726.262085,2238.216797 
	C1750.044800,2204.868408 1772.068970,2170.271729 1795.223022,2136.468262 
	C1848.334839,2058.927979 1903.536865,1982.915405 1962.279419,1909.515381 
	C1964.676880,1906.519653 1967.248535,1903.663330 1970.082275,1900.339478 
	C1973.731567,1904.573608 1976.581665,1907.798706 1979.343994,1911.097412 
	C2069.105225,2018.286377 2151.131348,2131.118408 2225.998535,2249.175049 
	C2228.490479,2253.104248 2230.774658,2257.327637 2233.970459,2260.623535 
	C2264.541016,2292.150879 2301.182129,2307.575439 2345.572266,2302.185059 
	C2381.957275,2297.766357 2425.336182,2263.679932 2425.041504,2213.173340 
	C2424.927734,2193.681152 2421.251221,2175.454346 2410.504395,2158.124512 
	C2321.453613,2014.527710 2221.771729,1878.826782 2110.750244,1751.452881 
	C2108.378662,1748.732056 2106.165527,1745.873047 2103.631348,1742.776733 
	C2106.241943,1739.691284 2108.557373,1736.882690 2110.947998,1734.139282 
	C2202.764893,1628.773926 2301.261230,1529.819458 2401.143311,1432.211548 
	C2424.224854,1409.655518 2432.027100,1382.047729 2428.964355,1351.146362 
	C2425.872070,1319.947388 2407.119141,1298.867798 2380.586914,1284.400391 
	C2356.406738,1271.215332 2330.402100,1270.163330 2303.789062,1274.991211 
	C2283.996094,1278.581787 2266.224121,1286.136597 2251.457520,1300.145264 
	C2155.944824,1390.756104 2061.422119,1482.344238 1974.104614,1581.043579 
	C1972.151611,1583.251099 1970.838501,1586.024536 1968.862793,1589.101196 
	C1914.764893,1534.286865 1862.597168,1481.428223 1809.424805,1427.564575 
M373.397461,824.384766 
	C431.603760,794.162598 492.553833,771.384949 556.582153,757.006897 
	C595.965881,748.162903 635.858154,742.817017 676.054260,739.295776 
	C727.337830,734.803345 778.567566,734.391296 829.716980,740.504333 
	C887.491821,747.409241 943.609985,761.262573 998.028320,781.923462 
	C1001.050720,783.071045 1004.150635,784.014587 1007.928345,785.295105 
	C1008.652649,780.005737 1009.388123,775.439819 1009.888794,770.848267 
	C1013.499451,737.734497 1017.012512,704.609985 1020.653625,671.499573 
	C1025.058960,631.440369 1029.508789,591.385803 1034.033936,551.339905 
	C1038.334717,513.277649 1042.771118,475.230713 1047.117554,437.173584 
	C1048.327026,426.582672 1049.396606,415.975800 1050.597290,405.383850 
	C1051.062866,401.277649 1051.388184,397.137177 1047.135742,394.791534 
	C1042.332275,392.141968 1038.983765,395.273224 1035.713745,398.264679 
	C1033.500610,400.289215 1031.230591,402.251434 1028.988281,404.244293 
	C999.094116,430.814575 969.586182,457.835907 939.212708,483.846558 
	C897.508057,519.560791 849.667297,529.413269 797.231262,513.425110 
	C762.532532,502.845154 735.635010,481.039490 715.210083,451.182587 
	C680.785156,400.860596 646.378540,350.526154 611.949097,300.207245 
	C609.942383,297.274414 607.801575,294.433350 605.166565,290.777313 
	C603.562744,294.427460 602.450989,296.808777 601.458740,299.238953 
	C590.259399,326.667847 579.089722,354.108795 567.889404,381.537262 
	C554.676453,413.894348 542.093323,446.527618 528.088501,478.538635 
	C491.663635,561.795471 395.168121,595.516235 316.548126,550.220520 
	C280.768127,529.606384 244.369339,510.066071 208.241943,490.055389 
	C205.626038,488.606445 203.059616,486.906891 200.251907,485.998535 
	C194.094009,484.006317 189.481918,487.537292 189.765457,493.951324 
	C189.865402,496.212341 190.699417,498.488495 191.464371,500.664154 
	C194.555603,509.456055 197.742722,518.214355 200.908600,526.979919 
	C217.189240,572.057495 234.497849,616.795715 249.508148,662.292358 
	C269.943756,724.233154 288.620758,786.754089 308.074646,849.019165 
	C309.138611,852.424500 310.411530,855.764526 311.654053,859.326538 
	C332.285065,847.653931 352.197998,836.387512 373.397461,824.384766 
z"/>
<path fill="#A86875" opacity="1.000000" stroke="none" 
	d="
M2666.000000,3.000000 
	C1779.431519,4.000000 892.863098,4.000000 5.597462,4.000000 
	C5.089971,7.277369 4.584873,9.787989 4.345847,12.323689 
	C4.158961,14.306263 4.299073,16.319950 4.299072,18.319811 
	C4.298796,897.596191 4.298959,1776.872559 4.299759,2656.148926 
	C4.299762,2658.814941 4.310037,2661.480957 4.157727,2665.073486 
	C3.333275,2665.666992 2.112327,2665.368652 2.088863,2664.994873 
	C1.922014,2662.339111 2.000000,2659.668213 2.000000,2657.001953 
	C2.000000,1772.167725 2.000000,887.333496 2.000000,2.000000 
	C889.999939,2.000000 1778.000000,2.000000 2666.000000,3.000000 
z"/>
<path fill="#FFFEFF" opacity="1.000000" stroke="none" 
	d="
M859.603149,1938.395752 
	C824.158325,1898.946777 789.157898,1860.050659 754.274109,1821.050293 
	C751.413513,1817.852051 749.103088,1816.124878 744.194824,1816.964478 
	C682.697388,1827.483643 620.705994,1833.221924 558.369324,1835.395020 
	C556.100525,1835.474121 553.840393,1835.802002 550.605408,1836.104858 
	C550.605408,1840.357910 550.605408,1844.285156 550.605408,1848.212402 
	C550.605408,1954.211914 550.716125,2060.211670 550.454956,2166.210449 
	C550.424744,2178.459473 549.360413,2190.906982 546.996155,2202.911865 
	C539.568481,2240.627197 514.736511,2263.097168 479.973694,2275.759033 
	C421.802643,2296.947021 352.074615,2263.721436 340.011719,2195.575439 
	C338.685364,2188.082520 337.917755,2180.382812 337.915375,2172.778809 
	C337.813416,1845.780273 337.827545,1518.781616 337.827515,1191.783081 
	C337.827515,1187.468872 337.827515,1183.154663 337.827515,1178.790894 
	C334.413208,1177.214355 331.426361,1175.770020 328.388123,1174.443604 
	C316.058136,1169.060425 305.180664,1161.532349 295.030396,1152.732422 
	C256.430847,1119.267944 258.676117,1072.780273 278.873566,1038.589600 
	C286.926270,1024.958130 297.779205,1013.858582 311.436340,1005.374512 
	C403.225250,948.353271 502.053284,909.135986 608.124146,888.638245 
	C674.878967,875.738220 742.295044,872.443176 810.129089,877.532532 
	C863.191895,881.513672 915.073975,891.280640 965.392334,908.728821 
	C1027.477051,930.256958 1080.815186,966.136780 1129.599976,1009.413635 
	C1163.967407,1039.900879 1194.557617,1073.648071 1217.646606,1113.577271 
	C1245.696533,1162.085327 1262.912476,1214.273071 1268.116943,1270.156982 
	C1276.914551,1364.621460 1254.639282,1452.250244 1206.993042,1533.375000 
	C1151.510864,1627.841919 1074.150391,1699.247192 975.221008,1746.900513 
	C972.309448,1748.302856 969.454163,1749.821777 965.825928,1751.665894 
	C968.635864,1754.960449 970.891235,1757.741455 973.287842,1760.395020 
	C1082.537231,1881.351807 1191.840820,2002.259644 1301.011841,2123.287109 
	C1316.408813,2140.356201 1327.977173,2159.925537 1332.459229,2182.642578 
	C1338.326294,2212.379150 1331.336914,2238.959961 1309.082886,2260.391846 
	C1291.091064,2277.718506 1269.207397,2286.583008 1244.347412,2288.111084 
	C1228.607178,2289.078613 1213.102539,2287.492676 1197.753662,2283.800781 
	C1176.624268,2278.718750 1158.939209,2267.971680 1144.923462,2251.518799 
	C1077.465454,2172.329346 1006.784241,2096.062012 935.696167,2020.157715 
	C910.407715,1993.156250 885.279297,1966.004761 859.603149,1938.395752 
M944.905640,1116.052368 
	C937.646423,1111.983643 930.487671,1107.722046 923.111389,1103.877930 
	C880.391357,1081.614502 834.102844,1072.583252 786.760193,1068.437622 
	C727.568298,1063.254395 668.942932,1067.979492 611.254211,1082.238892 
	C590.979675,1087.250244 571.121277,1093.945068 551.742981,1099.673096 
	C549.519287,1114.774292 550.239319,1636.672852 552.405640,1643.893311 
	C556.243225,1643.689453 560.217468,1643.576294 564.174438,1643.252197 
	C593.053955,1640.885986 621.992798,1639.055542 650.789856,1635.924072 
	C681.217468,1632.615112 711.709717,1629.174927 741.813477,1623.781250 
	C788.896667,1615.345337 834.301697,1600.124268 876.867615,1578.779907 
	C943.764282,1545.235107 993.180847,1492.617554 1028.558228,1427.142212 
	C1052.920410,1382.053833 1065.892700,1333.925171 1060.196533,1282.036987 
	C1055.283813,1237.283813 1038.556641,1197.881348 1007.051208,1165.176025 
	C988.894836,1146.328125 968.047791,1130.913574 944.905640,1116.052368 
z"/>
<path fill="#FFFEFE" opacity="1.000000" stroke="none" 
	d="
M1809.927124,1428.067139 
	C1862.597168,1481.428223 1914.764893,1534.286865 1968.862793,1589.101196 
	C1970.838501,1586.024536 1972.151611,1583.251099 1974.104614,1581.043579 
	C2061.422119,1482.344238 2155.944824,1390.756104 2251.457520,1300.145264 
	C2266.224121,1286.136597 2283.996094,1278.581787 2303.789062,1274.991211 
	C2330.402100,1270.163330 2356.406738,1271.215332 2380.586914,1284.400391 
	C2407.119141,1298.867798 2425.872070,1319.947388 2428.964355,1351.146362 
	C2432.027100,1382.047729 2424.224854,1409.655518 2401.143311,1432.211548 
	C2301.261230,1529.819458 2202.764893,1628.773926 2110.947998,1734.139282 
	C2108.557373,1736.882690 2106.241943,1739.691284 2103.631348,1742.776733 
	C2106.165527,1745.873047 2108.378662,1748.732056 2110.750244,1751.452881 
	C2221.771729,1878.826782 2321.453613,2014.527710 2410.504395,2158.124512 
	C2421.251221,2175.454346 2424.927734,2193.681152 2425.041504,2213.173340 
	C2425.336182,2263.679932 2381.957275,2297.766357 2345.572266,2302.185059 
	C2301.182129,2307.575439 2264.541016,2292.150879 2233.970459,2260.623535 
	C2230.774658,2257.327637 2228.490479,2253.104248 2225.998535,2249.175049 
	C2151.131348,2131.118408 2069.105225,2018.286377 1979.343994,1911.097412 
	C1976.581665,1907.798706 1973.731567,1904.573608 1970.082275,1900.339478 
	C1967.248535,1903.663330 1964.676880,1906.519653 1962.279419,1909.515381 
	C1903.536865,1982.915405 1848.334839,2058.927979 1795.223022,2136.468262 
	C1772.068970,2170.271729 1750.044800,2204.868408 1726.262085,2238.216797 
	C1692.688354,2285.294434 1638.898804,2301.857910 1588.821899,2283.686035 
	C1556.961548,2272.124512 1534.615723,2250.157959 1527.092773,2215.849121 
	C1523.597168,2199.907471 1524.550659,2183.783447 1530.808960,2168.692139 
	C1536.011597,2156.145996 1542.078979,2143.797607 1549.165161,2132.219727 
	C1600.710205,2047.998535 1658.375854,1968.039429 1719.011719,1890.187744 
	C1755.251587,1843.658569 1791.715210,1797.303467 1828.073975,1750.866821 
	C1829.917358,1748.512573 1831.721069,1746.127197 1834.041992,1743.107544 
	C1831.692383,1740.458374 1829.459961,1737.708984 1826.990479,1735.192261 
	C1789.180298,1696.660645 1751.003052,1658.482422 1713.586914,1619.572388 
	C1663.008789,1566.974854 1612.966431,1513.861450 1562.811646,1460.858276 
	C1555.749512,1453.395020 1549.086670,1445.512939 1542.701660,1437.458008 
	C1525.929565,1416.299072 1517.304810,1392.390869 1519.431396,1365.113281 
	C1520.985229,1345.184814 1529.747681,1328.660522 1544.378418,1315.449829 
	C1573.396484,1289.248413 1607.601685,1282.311890 1644.912598,1291.095459 
	C1673.042358,1297.717651 1697.037476,1312.006470 1717.209351,1333.180176 
	C1747.546509,1365.024048 1778.648193,1396.139404 1809.927124,1428.067139 
z"/>
<path fill="#FFFEFE" opacity="1.000000" stroke="none" 
	d="
M372.754211,824.752930 
	C352.197998,836.387512 332.285065,847.653931 311.654053,859.326538 
	C310.411530,855.764526 309.138611,852.424500 308.074646,849.019165 
	C288.620758,786.754089 269.943756,724.233154 249.508148,662.292358 
	C234.497849,616.795715 217.189240,572.057495 200.908600,526.979919 
	C197.742722,518.214355 194.555603,509.456055 191.464371,500.664154 
	C190.699417,498.488495 189.865402,496.212341 189.765457,493.951324 
	C189.481918,487.537292 194.094009,484.006317 200.251907,485.998535 
	C203.059616,486.906891 205.626038,488.606445 208.241943,490.055389 
	C244.369339,510.066071 280.768127,529.606384 316.548126,550.220520 
	C395.168121,595.516235 491.663635,561.795471 528.088501,478.538635 
	C542.093323,446.527618 554.676453,413.894348 567.889404,381.537262 
	C579.089722,354.108795 590.259399,326.667847 601.458740,299.238953 
	C602.450989,296.808777 603.562744,294.427460 605.166565,290.777313 
	C607.801575,294.433350 609.942383,297.274414 611.949097,300.207245 
	C646.378540,350.526154 680.785156,400.860596 715.210083,451.182587 
	C735.635010,481.039490 762.532532,502.845154 797.231262,513.425110 
	C849.667297,529.413269 897.508057,519.560791 939.212708,483.846558 
	C969.586182,457.835907 999.094116,430.814575 1028.988281,404.244293 
	C1031.230591,402.251434 1033.500610,400.289215 1035.713745,398.264679 
	C1038.983765,395.273224 1042.332275,392.141968 1047.135742,394.791534 
	C1051.388184,397.137177 1051.062866,401.277649 1050.597290,405.383850 
	C1049.396606,415.975800 1048.327026,426.582672 1047.117554,437.173584 
	C1042.771118,475.230713 1038.334717,513.277649 1034.033936,551.339905 
	C1029.508789,591.385803 1025.058960,631.440369 1020.653625,671.499573 
	C1017.012512,704.609985 1013.499451,737.734497 1009.888794,770.848267 
	C1009.388123,775.439819 1008.652649,780.005737 1007.928345,785.295105 
	C1004.150635,784.014587 1001.050720,783.071045 998.028320,781.923462 
	C943.609985,761.262573 887.491821,747.409241 829.716980,740.504333 
	C778.567566,734.391296 727.337830,734.803345 676.054260,739.295776 
	C635.858154,742.817017 595.965881,748.162903 556.582153,757.006897 
	C492.553833,771.384949 431.603760,794.162598 372.754211,824.752930 
z"/>
<path fill="#7D1E31" opacity="1.000000" stroke="none" 
	d="
M945.522949,1116.432617 
	C968.047791,1130.913574 988.894836,1146.328125 1007.051208,1165.176025 
	C1038.556641,1197.881348 1055.283813,1237.283813 1060.196533,1282.036987 
	C1065.892700,1333.925171 1052.920410,1382.053833 1028.558228,1427.142212 
	C993.180847,1492.617554 943.764282,1545.235107 876.867615,1578.779907 
	C834.301697,1600.124268 788.896667,1615.345337 741.813477,1623.781250 
	C711.709717,1629.174927 681.217468,1632.615112 650.789856,1635.924072 
	C621.992798,1639.055542 593.053955,1640.885986 564.174438,1643.252197 
	C560.217468,1643.576294 556.243225,1643.689453 552.405640,1643.893311 
	C550.239319,1636.672852 549.519287,1114.774292 551.742981,1099.673096 
	C571.121277,1093.945068 590.979675,1087.250244 611.254211,1082.238892 
	C668.942932,1067.979492 727.568298,1063.254395 786.760193,1068.437622 
	C834.102844,1072.583252 880.391357,1081.614502 923.111389,1103.877930 
	C930.487671,1107.722046 937.646423,1111.983643 945.522949,1116.432617 
z"/>
</svg>