<svg xmlns="http://www.w3.org/2000/svg" xmlns:xlink="http://www.w3.org/1999/xlink" version="1.0" x="0" y="0" width="2400" height="2400" viewBox="139.4 94.4 61.2 61.2" preserveAspectRatio="xMidYMid meet" color-interpolation-filters="sRGB"><g><defs><linearGradient id="92" x1="0%" y1="0%" x2="100%" y2="0%"><stop offset="0%" stop-color="#fa71cd"></stop> <stop offset="100%" stop-color="#9b59b6"></stop></linearGradient><linearGradient id="93" x1="0%" y1="0%" x2="100%" y2="0%"><stop offset="0%" stop-color="#f9d423"></stop> <stop offset="100%" stop-color="#f83600"></stop></linearGradient><linearGradient id="94" x1="0%" y1="0%" x2="100%" y2="0%"><stop offset="0%" stop-color="#0064d2"></stop> <stop offset="100%" stop-color="#1cb0f6"></stop></linearGradient><linearGradient id="95" x1="0%" y1="0%" x2="100%" y2="0%"><stop offset="0%" stop-color="#f00978"></stop> <stop offset="100%" stop-color="#3f51b1"></stop></linearGradient><linearGradient id="96" x1="0%" y1="0%" x2="100%" y2="0%"><stop offset="0%" stop-color="#7873f5"></stop> <stop offset="100%" stop-color="#ec77ab"></stop></linearGradient><linearGradient id="97" x1="0%" y1="0%" x2="100%" y2="0%"><stop offset="0%" stop-color="#f9d423"></stop> <stop offset="100%" stop-color="#e14fad"></stop></linearGradient><linearGradient id="98" x1="0%" y1="0%" x2="100%" y2="0%"><stop offset="0%" stop-color="#009efd"></stop> <stop offset="100%" stop-color="#2af598"></stop></linearGradient><linearGradient id="99" x1="0%" y1="0%" x2="100%" y2="0%"><stop offset="0%" stop-color="#ffcc00"></stop> <stop offset="100%" stop-color="#00b140"></stop></linearGradient><linearGradient id="100" x1="0%" y1="0%" x2="100%" y2="0%"><stop offset="0%" stop-color="#d51007"></stop> <stop offset="100%" stop-color="#ff8177"></stop></linearGradient><linearGradient id="102" x1="0%" y1="0%" x2="100%" y2="0%"><stop offset="0%" stop-color="#a2b6df"></stop> <stop offset="100%" stop-color="#0c3483"></stop></linearGradient><linearGradient id="103" x1="0%" y1="0%" x2="100%" y2="0%"><stop offset="0%" stop-color="#7ac5d8"></stop> <stop offset="100%" stop-color="#eea2a2"></stop></linearGradient><linearGradient id="104" x1="0%" y1="0%" x2="100%" y2="0%"><stop offset="0%" stop-color="#00ecbc"></stop> <stop offset="100%" stop-color="#007adf"></stop></linearGradient><linearGradient id="105" x1="0%" y1="0%" x2="100%" y2="0%"><stop offset="0%" stop-color="#b88746"></stop> <stop offset="100%" stop-color="#fdf5a6"></stop></linearGradient></defs><g class="imagesvg isNoFont" transform="translate(140,95)"><g><rect fill="#ff9900" fill-opacity="0" stroke-width="2" x="0" y="0" width="60" height="60" class="image-rect" style="--darkreader-inline-fill: #cc7a00;"></rect> <svg filter="url(#colors7348688655)" x="0" y="0" width="60" height="60" filtersec="colorsf9112076741" class="image-svg-svg primary" style="overflow: visible;"><svg xmlns="http://www.w3.org/2000/svg" xmlns:xlink="http://www.w3.org/1999/xlink" version="1.0" x="0px" y="0px" viewBox="10 10 80 80" enable-background="new 0 0 100 100" xml:space="preserve"><path d="M50,10c-22.09,0-40,17.909-40,40c0,22.09,17.91,40,40,40s40-17.91,40-40C90,27.909,72.09,10,50,10z M50,83.333  c-18.411,0-33.333-14.925-33.333-33.333c0-16.198,11.559-29.688,26.875-32.695c-11.973,6.024-20.209,18.373-20.209,32.692  c0,14.723,11.94,26.666,26.667,26.666S76.663,64.724,76.667,50c-0.004-11.042-8.952-20-20-20c-11.045,0-20,8.958-20,20  c0,7.366,5.97,13.333,13.333,13.333S63.333,57.366,63.333,50c0-3.685-2.984-6.667-6.666-6.667S50,46.315,50,50h6.667  c0,3.685-2.985,6.667-6.667,6.667S43.333,53.685,43.333,50c0-7.36,5.971-13.333,13.334-13.333C64.033,36.667,70,42.637,70,50  c-0.003,11.042-8.955,19.997-20,19.997s-20-8.959-20-20C30,33.431,43.435,20,60,20c1.976,0,3.88,0.254,5.745,0.622  C76.211,26.242,83.333,37.285,83.333,50C83.333,68.408,68.408,83.333,50,83.333z"></path></svg></svg> <defs><filter id="colors7348688655"><feColorMatrix type="matrix" values="0 0 0 0 0.99609375  0 0 0 0 0.59765625  0 0 0 0 0  0 0 0 1 0" class="icon-feColorMatrix "></feColorMatrix></filter> <filter id="colorsf9112076741"><feColorMatrix type="matrix" values="0 0 0 0 0.99609375  0 0 0 0 0.99609375  0 0 0 0 0.99609375  0 0 0 1 0" class="icon-fecolormatrix"></feColorMatrix></filter> <filter id="colorsb5943008424"><feColorMatrix type="matrix" values="0 0 0 0 0  0 0 0 0 0  0 0 0 0 0  0 0 0 1 0" class="icon-fecolormatrix"></feColorMatrix></filter></defs></g></g><defs v-gra="od"></defs></g></svg>