<svg xmlns="http://www.w3.org/2000/svg" xmlns:xlink="http://www.w3.org/1999/xlink" version="1.0" x="0" y="0" width="2400" height="719.4349212659314" viewBox="34.04929626464844 84.2467984008789 271.90140747070313 81.50640319824218" preserveAspectRatio="xMidYMid meet" color-interpolation-filters="sRGB"><g><defs><linearGradient id="92" x1="0%" y1="0%" x2="100%" y2="0%"><stop offset="0%" stop-color="#fa71cd"></stop> <stop offset="100%" stop-color="#9b59b6"></stop></linearGradient><linearGradient id="93" x1="0%" y1="0%" x2="100%" y2="0%"><stop offset="0%" stop-color="#f9d423"></stop> <stop offset="100%" stop-color="#f83600"></stop></linearGradient><linearGradient id="94" x1="0%" y1="0%" x2="100%" y2="0%"><stop offset="0%" stop-color="#0064d2"></stop> <stop offset="100%" stop-color="#1cb0f6"></stop></linearGradient><linearGradient id="95" x1="0%" y1="0%" x2="100%" y2="0%"><stop offset="0%" stop-color="#f00978"></stop> <stop offset="100%" stop-color="#3f51b1"></stop></linearGradient><linearGradient id="96" x1="0%" y1="0%" x2="100%" y2="0%"><stop offset="0%" stop-color="#7873f5"></stop> <stop offset="100%" stop-color="#ec77ab"></stop></linearGradient><linearGradient id="97" x1="0%" y1="0%" x2="100%" y2="0%"><stop offset="0%" stop-color="#f9d423"></stop> <stop offset="100%" stop-color="#e14fad"></stop></linearGradient><linearGradient id="98" x1="0%" y1="0%" x2="100%" y2="0%"><stop offset="0%" stop-color="#009efd"></stop> <stop offset="100%" stop-color="#2af598"></stop></linearGradient><linearGradient id="99" x1="0%" y1="0%" x2="100%" y2="0%"><stop offset="0%" stop-color="#ffcc00"></stop> <stop offset="100%" stop-color="#00b140"></stop></linearGradient><linearGradient id="100" x1="0%" y1="0%" x2="100%" y2="0%"><stop offset="0%" stop-color="#d51007"></stop> <stop offset="100%" stop-color="#ff8177"></stop></linearGradient><linearGradient id="102" x1="0%" y1="0%" x2="100%" y2="0%"><stop offset="0%" stop-color="#a2b6df"></stop> <stop offset="100%" stop-color="#0c3483"></stop></linearGradient><linearGradient id="103" x1="0%" y1="0%" x2="100%" y2="0%"><stop offset="0%" stop-color="#7ac5d8"></stop> <stop offset="100%" stop-color="#eea2a2"></stop></linearGradient><linearGradient id="104" x1="0%" y1="0%" x2="100%" y2="0%"><stop offset="0%" stop-color="#00ecbc"></stop> <stop offset="100%" stop-color="#007adf"></stop></linearGradient><linearGradient id="105" x1="0%" y1="0%" x2="100%" y2="0%"><stop offset="0%" stop-color="#b88746"></stop> <stop offset="100%" stop-color="#fdf5a6"></stop></linearGradient></defs><g fill="#ff9900" class="icon-text-wrapper icon-svg-group iconsvg" transform="translate(36.714996337890625,86.9124984741211)" style="--darkreader-inline-fill: #cc7a00;"><g class="iconsvg-imagesvg" transform="translate(0,0)"><g><rect fill="#ff9900" fill-opacity="0" stroke-width="2" x="0" y="0" width="60" height="60" class="image-rect" style="--darkreader-inline-fill: #cc7a00;"></rect> <svg filter="url(#colors2052892478)" x="0" y="0" width="60" height="60" filtersec="colorsf8931436839" class="image-svg-svg primary" style="overflow: visible;"><svg xmlns="http://www.w3.org/2000/svg" xmlns:xlink="http://www.w3.org/1999/xlink" version="1.0" x="0px" y="0px" viewBox="10 10 80 80" enable-background="new 0 0 100 100" xml:space="preserve"><path d="M50,10c-22.09,0-40,17.909-40,40c0,22.09,17.91,40,40,40s40-17.91,40-40C90,27.909,72.09,10,50,10z M50,83.333  c-18.411,0-33.333-14.925-33.333-33.333c0-16.198,11.559-29.688,26.875-32.695c-11.973,6.024-20.209,18.373-20.209,32.692  c0,14.723,11.94,26.666,26.667,26.666S76.663,64.724,76.667,50c-0.004-11.042-8.952-20-20-20c-11.045,0-20,8.958-20,20  c0,7.366,5.97,13.333,13.333,13.333S63.333,57.366,63.333,50c0-3.685-2.984-6.667-6.666-6.667S50,46.315,50,50h6.667  c0,3.685-2.985,6.667-6.667,6.667S43.333,53.685,43.333,50c0-7.36,5.971-13.333,13.334-13.333C64.033,36.667,70,42.637,70,50  c-0.003,11.042-8.955,19.997-20,19.997s-20-8.959-20-20C30,33.431,43.435,20,60,20c1.976,0,3.88,0.254,5.745,0.622  C76.211,26.242,83.333,37.285,83.333,50C83.333,68.408,68.408,83.333,50,83.333z"></path></svg></svg> <defs><filter id="colors2052892478"><feColorMatrix type="matrix" values="0 0 0 0 0.99609375  0 0 0 0 0.59765625  0 0 0 0 0  0 0 0 1 0" class="icon-feColorMatrix "></feColorMatrix></filter> <filter id="colorsf8931436839"><feColorMatrix type="matrix" values="0 0 0 0 0.99609375  0 0 0 0 0.99609375  0 0 0 0 0.99609375  0 0 0 1 0" class="icon-fecolormatrix"></feColorMatrix></filter> <filter id="colorsb8394252093"><feColorMatrix type="matrix" values="0 0 0 0 0  0 0 0 0 0  0 0 0 0 0  0 0 0 1 0" class="icon-fecolormatrix"></feColorMatrix></filter></defs></g></g> <g transform="translate(68,11.825000762939453)"><g fill-rule="" class="tp-name iconsvg-namesvg"><g transform="scale(1)"><g><path d="M1.63-10.99L1.63-10.99Q1.63-15.54 4.49-21 7.35-26.46 11.99-30.36 16.64-34.26 21.13-34.26L21.13-34.26Q23.4-34.26 25.8-31.3 28.21-28.34 28.21-26L28.21-26Q28.21-24.31 26.65-24.31L26.65-24.31Q25.87-24.31 24.51-25.03 23.14-25.74 21.71-25.74 20.28-25.74 17.65-23.3 15.02-20.87 12.97-17.45 10.92-14.04 10.92-12.09 10.92-10.14 11.67-9.55 12.42-8.97 15.31-8.97 18.2-8.97 20.57-9.49 22.95-10.01 24.08-10.56 25.22-11.12 26.13-11.12L26.13-11.12Q27.95-11.12 27.95-9.55L27.95-9.55Q27.95-6.7 22.95-3.74 17.94-0.78 12.94-0.78L12.94-0.78Q9.75-0.78 5.69-4.32 1.63-7.87 1.63-10.99ZM42.58-7.41Q46.09-8.97 48.69-13.71 51.28-18.46 51.28-22.62 51.28-26.78 50.12-28.34L50.12-28.34Q47.32-26.71 44.56-21.52 41.8-16.32 41.8-12.38 41.8-8.45 42.58-7.41L42.58-7.41ZM33.09-11.7Q33.09-19.82 38.12-27.11 43.16-34.38 48.1-34.38 53.04-34.38 56.42-30.91 59.8-27.43 59.8-22.52 59.8-17.62 57.46-12.54 55.12-7.48 50.89-4.13 46.67-0.78 41.86-0.78L41.86-0.78Q38.28-0.78 35.69-3.97 33.09-7.15 33.09-11.7L33.09-11.7ZM86.97-34.32L86.97-34.32Q90.35-34.32 92.92-31.3 95.48-28.28 95.48-24.83L95.48-24.83Q95.48-19.3 93.7-13.29 91.91-7.28 89.8-4.03 87.69-0.78 85.51-0.78 83.33-0.78 83.33-3.83L83.33-3.83Q83.33-6.17 85.47-13.26L85.47-13.26Q87.1-19.11 87.1-21.64 87.1-24.18 86.45-24.18L86.45-24.18Q85.6-24.18 84.79-23.34 83.98-22.49 83.46-21.84 82.94-21.19 82.26-20.18 81.58-19.18 81.09-18.36 80.6-17.55 79.85-16.28 79.1-15.02 78.65-14.2 78.19-13.39 77.48-12.09L77.48-12.09Q71.44-0.78 67.99-0.78L67.99-0.78Q66.63-0.78 64.55-3.15 62.46-5.53 62.46-6.63L62.46-6.63Q62.46-7.35 63.41-9.72 64.35-12.09 64.77-13.36 65.19-14.63 65.49-16.05 65.78-17.48 65.97-19.14 66.17-20.8 66.27-21.71 66.36-22.62 66.5-24.57L66.5-24.57Q67.08-33.02 67.5-33.93 67.92-34.84 68.44-34.84L68.44-34.84Q70.91-34.84 73.19-32.79 75.47-30.75 75.47-29.05L75.47-29.05Q75.47-25.03 73.38-17.48L73.38-17.48Q77.61-24.89 81.09-29.61 84.56-34.32 86.97-34.32ZM91.52 9.69L91.52 9.69Q93.6 9.69 95.91 2.63 98.22-4.42 100.81-15.37 103.42-26.32 104.36-29.35 105.3-32.37 105.92-33.34 106.53-34.32 107.38-34.32L107.38-34.32Q109.33-34.32 111.25-31.79 113.17-29.25 113.17-26.46L113.17-26.46Q113.17-25.29 104.45 4.62L104.45 4.62Q102.64 10.86 99 13.75 95.36 16.64 90.55 16.64L90.55 16.64Q87.17 16.64 83.85 13.85 80.53 11.05 80.53 8.91L80.53 8.91Q80.53 7.41 81.64 5.56 82.75 3.71 83.85 3.71 84.95 3.71 87.17 6.37L87.17 6.37Q87.75 7.08 87.88 7.28L87.88 7.28Q89.83 9.69 91.52 9.69ZM108.78-45.92Q110.31-47.71 111.8-47.71 113.3-47.71 115.28-44.2 117.26-40.69 117.26-38.61L117.26-38.61Q117.26-37.57 116.22-36.69 115.18-35.81 114.14-35.81L114.14-35.81Q112.19-35.81 109.72-38.29 107.25-40.76 107.25-42.45 107.25-44.13 108.78-45.92ZM138.78-32.7L138.78-32.7Q139.3-34.32 140.86-34.32 142.42-34.32 144.46-31.66 146.51-28.99 146.51-27.04L146.51-27.04Q146.51-26.32 143.52-17.48 140.53-8.64 138.91-3.51L138.91-3.51Q138-0.78 135.85-0.78L135.85-0.78Q134.55-0.78 133.67-1.72 132.8-2.67 132.8-4.68 132.8-6.7 133.58-10.4L133.58-10.4Q126.88-0.78 122.92-0.78L122.92-0.78Q120.84-0.78 117.91-3.48 114.99-6.17 114.99-8.71L114.99-8.71Q114.99-14.95 118.53-24.64 122.07-34.32 125.19-34.32L125.19-34.32Q127.08-34.32 128.54-32.63 130-30.94 130-28.93L130-28.93Q130-28.14 128.38-24.57L128.38-24.57Q123.44-13.85 123.44-9.43L123.44-9.43Q123.44-9.04 123.76-9.04L123.76-9.04Q124.74-9.04 127.43-12.12 130.13-15.21 133.48-20.96 136.83-26.71 138.78-32.7ZM151.13-23.34L151.13-23.34 150.74-30.68Q150.74-34.32 153.01-34.32L153.01-34.32Q154.31-34.32 155.58-33.34 156.84-32.37 157.5-30.29L157.5-30.29Q159.71-32.24 162.34-33.44 164.97-34.65 166.99-34.65L166.99-34.65Q171.73-34.65 171.73-32.37L171.73-32.37Q171.73-31.2 171.31-30.65 170.89-30.1 170.66-29.84 170.43-29.57 169.88-29.15 169.33-28.73 169.06-28.54L169.06-28.54Q167.57-27.56 166.92-27.17L166.92-27.17Q164-25.35 161.92-22.78 159.84-20.21 158.8-15.67L158.8-15.67Q157.04-8.19 155.38-4.52 153.73-0.84 151.68-0.84 149.63-0.84 148.62-2.79 147.62-4.75 147.62-6.47 147.62-8.19 148.88-11.63 150.15-15.08 150.64-17.58 151.13-20.09 151.13-23.34ZM200.2-22.16Q200.2-18.98 195.88-16.45 191.56-13.91 187.01-13.91 182.46-13.91 179.53-14.56L179.53-14.56Q178.95-12.8 178.95-11.05 178.95-9.29 179.53-8.55 180.12-7.8 182.46-7.8L182.46-7.8Q187.33-7.8 190.81-8.71 194.29-9.62 194.42-9.62L194.42-9.62Q197.08-9.62 197.08-7.87L197.08-7.87Q197.08-5.33 192.89-3.06 188.7-0.78 183.2-0.78 177.71-0.78 174.4-4.23 171.08-7.67 171.08-12.38 171.08-17.09 173.84-22.23 176.61-27.37 180.77-30.84 184.93-34.32 189.05-34.32 193.18-34.32 196.69-30.26 200.2-26.2 200.2-22.16L200.2-22.16ZM192.66-23.21Q192.66-23.86 191.3-25.09 189.93-26.32 188.73-26.32 187.53-26.32 185.64-24.6 183.76-22.88 182.07-20.15L182.07-20.15Q182.65-20.09 183.76-20.09L183.76-20.09Q192.66-20.09 192.66-23.21L192.66-23.21Z" transform="translate(-1.6299999952316284, 47.709999084472656)"></path></g> </g></g> </g></g><defs v-gra="od"></defs></g></svg>